# vtk DataFile Version 3.0
HBM2 temperature
ASCII
DATASET STRUCTURED_POINTS
DIMENSIONS 32 16 21
ORIGIN 0 0 0
SPACING 0.00025 0.00075 1
POINT_DATA 10752
SCALARS temperature_K float 1
LOOKUP_TABLE default
300.11675
300.08209
300.05275
300.03233
300.01715
300.00866
300.00424
300.00201
300.00092
300.00041
300.00018
300.00007
300.00003
300.00001
300
300
300
300
300
300
300
300
300
300
300
300
300
300
300
300
300
300
300.11664
300.08199
300.05268
300.03229
300.01712
300.00865
300.00423
300.00201
300.00092
300.00041
300.00018
300.00007
300.00003
300.00001
300
300
300
300
300
300
300
300
300
300
300
300
300
300
300
300
300
300
300.11541
300.08102
300.05204
300.03192
300.01693
300.00856
300.00419
300.00199
300.00091
300.00041
300.00017
300.00007
300.00003
300.00001
300
300
300
300
300
300
300
300
300
300
300
300
300
300
300
300
300
300
300.10484
300.07337
300.04743
300.02947
300.01574
300.00803
300.00397
300.0019
300.00088
300.00039
300.00017
300.00007
300.00003
300.00001
300
300
300
300
300
300
300
300
300
300
300
300
300
300
300
300
300
300
300.03674
300.03246
300.02661
300.01978
300.01152
300.0063
300.0033
300.00165
300.00079
300.00036
300.00016
300.00007
300.00003
300.00001
300
300
300
300
300
300
300
300
300
300
300
300
300
300
300
300
300
300
300.02617
300.02481
300.022
300.01732
300.01034
300.00577
300.00307
300.00157
300.00076
300.00035
300.00016
300.00007
300.00003
300.00001
300
300
300
300
300
300
300
300
300
300
300
300
300
300
300
300
300
300
300.02495
300.02384
300.02136
300.01695
300.01014
300.00567
300.00303
300.00155
300.00075
300.00035
300.00016
300.00007
300.00003
300.00001
300
300
300
300
300
300
300
300
300
300
300
300
300
300
300
300
300
300
300.02483
300.02375
300.0213
300.01691
300.01012
300.00566
300.00303
300.00155
300.00075
300.00035
300.00016
300.00007
300.00003
300.00001
300
300
300
300
300
300
300
300
300
300
300
300
300
300
300
300
300
300
300.02482
300.02374
300.02129
300.01691
300.01012
300.00566
300.00303
300.00155
300.00075
300.00035
300.00016
300.00007
300.00003
300.00001
300
300
300
300
300
300
300
300
300
300
300
300
300
300
300
300
300
300
300.02482
300.02374
300.02129
300.01691
300.01012
300.00566
300.00303
300.00155
300.00075
300.00035
300.00016
300.00007
300.00003
300.00001
300
300
300
300
300
300
300
300
300
300
300
300
300
300
300
300
300
300
300.02482
300.02374
300.02129
300.01691
300.01012
300.00566
300.00303
300.00155
300.00075
300.00035
300.00016
300.00007
300.00003
300.00001
300
300
300
300
300
300
300
300
300
300
300
300
300
300
300
300
300
300
300.02482
300.02374
300.02129
300.01691
300.01012
300.00566
300.00303
300.00155
300.00075
300.00035
300.00016
300.00007
300.00003
300.00001
300
300
300
300
300
300
300
300
300
300
300
300.00001
300.00002
300.00003
300.00003
300.00003
300.00002
300.00001
300.02482
300.02374
300.02129
300.01691
300.01012
300.00566
300.00303
300.00155
300.00075
300.00035
300.00016
300.00007
300.00003
300.00001
300
300
300
300
300
300
300
300
300
300.00001
300.00002
300.00004
300.0001
300.00017
300.00022
300.00017
300.0001
300.00006
300.02482
300.02374
300.02129
300.01691
300.01012
300.00566
300.00303
300.00155
300.00075
300.00035
300.00016
300.00007
300.00003
300.00001
300
300
300
300
300
300
300
300
300
300.00001
300.00002
300.00005
300.00011
300.0002
300.00025
300.0002
300.00012
300.00007
300.02482
300.02374
300.02129
300.01691
300.01012
300.00566
300.00303
300.00155
300.00075
300.00035
300.00016
300.00007
300.00003
300.00001
300
300
300
300
300
300
300
300
300
300.00001
300.00002
300.00005
300.00011
300.0002
300.00025
300.0002
300.00012
300.00007
300.02482
300.02374
300.02129
300.01691
300.01012
300.00566
300.00303
300.00155
300.00075
300.00035
300.00016
300.00007
300.00003
300.00001
300
300
300
300
300
300
300
300
300
300.00001
300.00002
300.00005
300.00011
300.0002
300.00025
300.0002
300.00012
300.00007
301.49836
301.28872
300.96902
300.65229
300.40279
300.23306
300.1284
300.06801
300.03477
300.01717
300.00817
300.00374
300.00164
300.00069
300.00028
300.00011
300.00004
300.00001
300.00001
300
300
300
300
300
300
300
300
300
300
300
300
300
301.49264
301.28376
300.96525
300.64975
300.40125
300.23222
300.12797
300.06781
300.03469
300.01713
300.00815
300.00373
300.00164
300.00069
300.00028
300.00011
300.00004
300.00001
300.00001
300
300
300
300
300
300
300
300
300
300
300
300
300
301.44937
301.24655
300.93745
300.63144
300.39045
300.22644
300.12513
300.06651
300.03413
300.01691
300.00807
300.0037
300.00163
300.00069
300.00028
300.00011
300.00004
300.00001
300.00001
300
300
300
300
300
300
300
300
300
300
300
300
300
301.21554
301.04775
300.79195
300.53811
300.33703
300.19871
300.11191
300.06066
300.03171
300.01596
300.00772
300.00358
300.00159
300.00067
300.00027
300.00011
300.00004
300.00001
300.00001
300
300
300
300
300
300
300
300
300
300
300
300
300
300.50979
300.45533
300.36782
300.27352
300.19018
300.1249
300.07783
300.04603
300.02582
300.01372
300.00691
300.0033
300.00149
300.00064
300.00027
300.0001
300.00004
300.00001
300
300
300
300
300
300
300
300
300
300
300
300
300
300
300.27596
300.25653
300.22233
300.18019
300.13675
300.09717
300.06461
300.04018
300.0234
300.01277
300.00656
300.00317
300.00145
300.00063
300.00026
300.0001
300.00004
300.00001
300
300
300
300
300
300
300
300
300
300
300
300
300
300
300.23268
300.21932
300.19452
300.16187
300.12595
300.09139
300.06177
300.03889
300.02284
300.01255
300.00647
300.00314
300.00144
300.00063
300.00026
300.0001
300.00004
300.00001
300
300
300
300
300
300
300
300
300
300
300
300
300
300
300.22691
300.2143
300.19071
300.1593
300.1244
300.09054
300.06133
300.03868
300.02275
300.01251
300.00646
300.00314
300.00144
300.00063
300.00026
300.0001
300.00004
300.00001
300
300
300
300
300
300
300
300
300
300
300
300
300
300
300.22629
300.21376
300.19029
300.15902
300.12422
300.09044
300.06128
300.03866
300.02274
300.01251
300.00646
300.00314
300.00144
300.00063
300.00026
300.0001
300.00004
300.00001
300
300
300
300
300
300
300
300
300
300
300
300
300
300
300.22624
300.21371
300.19026
300.15899
300.1242
300.09043
300.06127
300.03865
300.02274
300.01251
300.00646
300.00314
300.00144
300.00063
300.00026
300.0001
300.00004
300.00001
300
300
300
300
300
300
300
300.00001
300.00002
300.00003
300.00003
300.00003
300.00002
300.00001
300.22623
300.21371
300.19025
300.15899
300.1242
300.09043
300.06127
300.03865
300.02274
300.01251
300.00646
300.00314
300.00144
300.00063
300.00026
300.0001
300.00004
300.00001
300
300
300
300
300.00001
300.00002
300.00005
300.00012
300.00022
300.00035
300.00041
300.00035
300.00024
300.00017
300.22623
300.21371
300.19025
300.15899
300.1242
300.09043
300.06127
300.03865
300.02274
300.01251
300.00646
300.00314
300.00144
300.00063
300.00026
300.0001
300.00004
300.00001
300.00001
300
300.00001
300.00002
300.00006
300.00017
300.00046
300.00108
300.00216
300.00346
300.00416
300.00351
300.00233
300.00154
300.22623
300.21371
300.19025
300.15899
300.1242
300.09043
300.06127
300.03865
300.02274
300.01251
300.00646
300.00314
300.00144
300.00063
300.00026
300.0001
300.00004
300.00001
300.00001
300.00001
300.00002
300.00008
300.00027
300.00083
300.00234
300.00577
300.01201
300.02
300.02457
300.02025
300.01284
300.00811
300.22623
300.21371
300.19025
300.15899
300.1242
300.09043
300.06127
300.03865
300.02274
300.01251
300.00646
300.00314
300.00144
300.00063
300.00026
300.0001
300.00004
300.00001
300.00001
300.00001
300.00003
300.00009
300.00032
300.00098
300.00275
300.00674
300.01395
300.02312
300.02832
300.02341
300.01492
300.00949
300.22623
300.21371
300.19025
300.15899
300.1242
300.09043
300.06127
300.03865
300.02274
300.01251
300.00646
300.00314
300.00144
300.00063
300.00026
300.0001
300.00004
300.00001
300.00001
300.00001
300.00003
300.0001
300.00032
300.001
300.0028
300.00685
300.01415
300.02344
300.02871
300.02374
300.01515
300.00964
300.22623
300.21371
300.19025
300.15899
300.1242
300.09043
300.06127
300.03865
300.02274
300.01251
300.00646
300.00314
300.00144
300.00063
300.00026
300.0001
300.00004
300.00001
300.00001
300.00001
300.00003
300.0001
300.00032
300.001
300.0028
300.00686
300.01417
300.02346
300.02873
300.02376
300.01517
300.00966
301.49502
301.28411
300.96344
300.64698
300.39863
300.23023
300.12665
300.067
300.03422
300.01687
300.00802
300.00366
300.00161
300.00068
300.00027
300.00011
300.00004
300.00001
300
300
300
300
300
300
300
300
300
300
300
300
300
300
301.4894
301.27923
300.95974
300.64449
300.39712
300.22941
300.12624
300.06681
300.03414
300.01684
300.008
300.00366
300.00161
300.00068
300.00027
300.00011
300.00004
300.00001
300
300
300
300
300
300
300
300
300
300
300
300
300
300
301.44661
301.24246
300.93232
300.62647
300.38652
300.22374
300.12346
300.06554
300.0336
300.01662
300.00792
300.00363
300.00159
300.00067
300.00027
300.00011
300.00004
300.00001
300
300
300
300
300
300
300
300
300
300
300
300
300
300
301.21395
301.04492
300.78806
300.53417
300.33383
300.19647
300.11049
300.05982
300.03123
300.0157
300.00758
300.00351
300.00155
300.00066
300.00027
300.0001
300.00004
300.00001
300
300
300
300
300
300
300
300
300
300
300
300
300
300
300.50678
300.45233
300.36502
300.27114
300.18835
300.1236
300.07694
300.04546
300.02547
300.01351
300.00679
300.00324
300.00147
300.00063
300.00026
300.0001
300.00004
300.00001
300
300
300
300
300
300
300
300
300
300
300
300
300
300
300.27412
300.25479
300.22076
300.17884
300.13566
300.09632
300.06398
300.03974
300.0231
300.01259
300.00645
300.00312
300.00142
300.00062
300.00026
300.0001
300.00004
300.00001
300
300
300
300
300
300
300
300
300
300
300
300
300
300
300.23133
300.21802
300.19333
300.16082
300.12505
300.09066
300.0612
300.03847
300.02256
300.01237
300.00637
300.00309
300.00141
300.00061
300.00025
300.0001
300.00004
300.00001
300
300
300
300
300
300
300
300
300
300
300
300
300
300
300.22565
300.21309
300.18959
300.1583
300.12353
300.08982
300.06077
300.03827
300.02247
300.01234
300.00635
300.00308
300.00141
300.00061
300.00025
300.0001
300.00004
300.00001
300
300
300
300
300
300
300
300
300
300
300
300
300
300
300.22504
300.21256
300.18918
300.15802
300.12336
300.08973
300.06072
300.03825
300.02246
300.01233
300.00635
300.00308
300.00141
300.00061
300.00025
300.0001
300.00004
300.00001
300
300
300
300
300
300
300
300
300
300
300
300
300
300
300.22499
300.21252
300.18915
300.158
300.12334
300.08972
300.06072
300.03824
300.02246
300.01233
300.00635
300.00308
300.00141
300.00061
300.00025
300.0001
300.00004
300.00001
300
300
300
300
300
300
300
300.00001
300.00002
300.00003
300.00003
300.00003
300.00002
300.00001
300.22499
300.21251
300.18914
300.15799
300.12334
300.08971
300.06072
300.03824
300.02246
300.01233
300.00635
300.00308
300.00141
300.00061
300.00025
300.0001
300.00004
300.00001
300
300
300
300
300.00001
300.00002
300.00006
300.00013
300.00025
300.00039
300.00047
300.0004
300.00027
300.00018
300.22499
300.21251
300.18914
300.15799
300.12334
300.08971
300.06072
300.03824
300.02246
300.01233
300.00635
300.00308
300.00141
300.00061
300.00025
300.0001
300.00004
300.00001
300.00001
300
300.00001
300.00002
300.00006
300.00018
300.0005
300.00121
300.00247
300.00404
300.00492
300.0041
300.00265
300.00172
300.22499
300.21251
300.18914
300.15799
300.12334
300.08971
300.06072
300.03824
300.02246
300.01233
300.00635
300.00308
300.00141
300.00061
300.00025
300.0001
300.00004
300.00001
300.00001
300.00001
300.00002
300.00008
300.00029
300.00092
300.00263
300.00665
300.01424
300.02438
300.03048
300.02464
300.01515
300.00928
300.22499
300.21251
300.18914
300.15799
300.12334
300.08971
300.06072
300.03824
300.02246
300.01233
300.00635
300.00308
300.00141
300.00061
300.00025
300.0001
300.00004
300.00001
300.00001
300.00001
300.00003
300.0001
300.00034
300.00108
300.00308
300.00774
300.01646
300.02803
300.03494
300.02834
300.01753
300.01082
300.22499
300.21251
300.18914
300.15799
300.12334
300.08971
300.06072
300.03824
300.02246
300.01233
300.00635
300.00308
300.00141
300.00061
300.00025
300.0001
300.00004
300.00001
300.00001
300.00001
300.00003
300.0001
300.00035
300.0011
300.00313
300.00786
300.01669
300.02839
300.03537
300.02871
300.01778
300.01099
300.22499
300.21251
300.18914
300.15799
300.12334
300.08971
300.06072
300.03824
300.02246
300.01233
300.00635
300.00308
300.00141
300.00061
300.00025
300.0001
300.00004
300.00001
300.00001
300.00001
300.00003
300.0001
300.00035
300.0011
300.00314
300.00787
300.01671
300.02842
300.0354
300.02874
300.0178
300.011
301.46467
301.24917
300.92674
300.61465
300.37436
300.21413
300.11689
300.06144
300.03119
300.01529
300.00721
300.00327
300.00142
300.00059
300.00024
300.00009
300.00003
300.00001
300
300
300
300
300
300
300
300
300
300
300
300
300
300
301.45955
301.24475
300.9234
300.61242
300.37303
300.21341
300.11653
300.06127
300.03112
300.01526
300.0072
300.00327
300.00142
300.00059
300.00024
300.00009
300.00003
300.00001
300
300
300
300
300
300
300
300
300
300
300
300
300
300
301.41954
301.21055
300.89813
300.59599
300.36348
300.20837
300.11408
300.06017
300.03066
300.01507
300.00713
300.00324
300.00141
300.00059
300.00024
300.00009
300.00003
300.00001
300
300
300
300
300
300
300
300
300
300
300
300
300
300
301.19496
301.02116
300.76138
300.5097
300.31493
300.18361
300.10248
300.05511
300.02859
300.01428
300.00684
300.00314
300.00138
300.00058
300.00023
300.00009
300.00003
300.00001
300
300
300
300
300
300
300
300
300
300
300
300
300
300
300.48728
300.43338
300.34786
300.25698
300.17764
300.11603
300.07188
300.04223
300.02349
300.01237
300.00616
300.00291
300.0013
300.00056
300.00023
300.00009
300.00003
300.00001
300
300
300
300
300
300
300
300
300
300
300
300
300
300
300.2627
300.24399
300.21111
300.17069
300.12909
300.09127
300.06027
300.03717
300.02143
300.01157
300.00587
300.00281
300.00127
300.00055
300.00022
300.00009
300.00003
300.00001
300
300
300
300
300
300
300
300
300
300
300
300
300
300
300.22269
300.20979
300.18583
300.15426
300.11954
300.08623
300.05783
300.03607
300.02097
300.01139
300.0058
300.00278
300.00126
300.00054
300.00022
300.00009
300.00003
300.00001
300
300
300
300
300
300
300
300
300
300
300
300
300
300
300.21752
300.20532
300.18246
300.15201
300.1182
300.0855
300.05746
300.0359
300.02089
300.01136
300.00579
300.00278
300.00126
300.00054
300.00022
300.00009
300.00003
300.00001
300
300
300
300
300
300
300
300
300
300
300
300
300
300
300.21699
300.20485
300.1821
300.15177
300.11805
300.08542
300.05742
300.03588
300.02088
300.01136
300.00579
300.00278
300.00126
300.00054
300.00022
300.00009
300.00003
300.00001
300
300
300
300
300
300
300
300
300
300
300
300
300
300
300.21694
300.20481
300.18207
300.15174
300.11803
300.08541
300.05742
300.03588
300.02088
300.01136
300.00579
300.00278
300.00126
300.00054
300.00022
300.00009
300.00003
300.00001
300
300
300
300
300
300
300.00001
300.00001
300.00002
300.00004
300.00005
300.00004
300.00003
300.00002
300.21693
300.20481
300.18207
300.15174
300.11803
300.08541
300.05742
300.03588
300.02088
300.01136
300.00579
300.00278
300.00126
300.00054
300.00022
300.00009
300.00003
300.00001
300
300
300
300
300.00001
300.00003
300.00007
300.00018
300.00036
300.0006
300.00074
300.00061
300.00039
300.00025
300.21693
300.20481
300.18207
300.15174
300.11803
300.08541
300.05742
300.03588
300.02088
300.01136
300.00579
300.00278
300.00126
300.00054
300.00022
300.00009
300.00003
300.00001
300
300
300.00001
300.00002
300.00007
300.00024
300.00071
300.00183
300.00399
300.00696
300.00879
300.00703
300.00423
300.00253
300.21693
300.20481
300.18207
300.15174
300.11803
300.08541
300.05742
300.03588
300.02088
300.01136
300.00579
300.00278
300.00126
300.00054
300.00022
300.00009
300.00003
300.00001
300.00001
300.00001
300.00003
300.0001
300.00038
300.00129
300.004
300.01097
300.02549
300.04716
300.062
300.04751
300.02677
300.01497
300.21693
300.20481
300.18207
300.15174
300.11803
300.08541
300.05742
300.03588
300.02088
300.01136
300.00579
300.00278
300.00126
300.00054
300.00022
300.00009
300.00003
300.00001
300.00001
300.00001
300.00003
300.00012
300.00044
300.0015
300.00464
300.01262
300.02912
300.05352
300.07005
300.05393
300.03061
300.01726
300.21693
300.20481
300.18207
300.15174
300.11803
300.08541
300.05742
300.03588
300.02088
300.01136
300.00579
300.00278
300.00126
300.00054
300.00022
300.00009
300.00003
300.00001
300.00001
300.00001
300.00003
300.00012
300.00045
300.00153
300.00471
300.01278
300.02946
300.05408
300.07074
300.0545
300.03098
300.01749
300.21693
300.20481
300.18207
300.15174
300.11803
300.08541
300.05742
300.03588
300.02088
300.01136
300.00579
300.00278
300.00126
300.00054
300.00022
300.00009
300.00003
300.00001
300.00001
300.00001
300.00003
300.00012
300.00045
300.00153
300.00471
300.01279
300.02948
300.05412
300.07079
300.05454
300.031
300.0175
301.42426
301.21037
300.89274
300.58819
300.35599
300.20252
300.11005
300.05763
300.02915
300.01424
300.00669
300.00302
300.00131
300.00054
300.00022
300.00008
300.00003
300.00001
300
300
300
300
300
300
300
300
300
300
300
300
300
300
301.41947
301.20624
300.88964
300.58613
300.35476
300.20186
300.10972
300.05748
300.02909
300.01421
300.00668
300.00302
300.00131
300.00054
300.00022
300.00008
300.00003
300.00001
300
300
300
300
300
300
300
300
300
300
300
300
300
300
301.38148
301.17386
300.86582
300.57074
300.34588
300.1972
300.10748
300.05647
300.02867
300.01404
300.00662
300.003
300.0013
300.00054
300.00022
300.00008
300.00003
300.00001
300
300
300
300
300
300
300
300
300
300
300
300
300
300
301.16465
300.99164
300.73503
300.48881
300.30015
300.17407
300.09672
300.05182
300.02678
300.01332
300.00636
300.00291
300.00127
300.00053
300.00021
300.00008
300.00003
300.00001
300
300
300
300
300
300
300
300
300
300
300
300
300
300
300.46899
300.41632
300.33318
300.24538
300.16914
300.11019
300.06807
300.03986
300.02209
300.01158
300.00574
300.0027
300.0012
300.00051
300.00021
300.00008
300.00003
300.00001
300
300
300
300
300
300
300
300
300
300
300
300
300
300
300.25216
300.23409
300.20239
300.16345
300.12342
300.08706
300.05731
300.03521
300.02021
300.01086
300.00548
300.00261
300.00117
300.0005
300.0002
300.00008
300.00003
300.00001
300
300
300
300
300
300
300
300
300
300
300
300
300
300
300.21416
300.20171
300.17857
300.14807
300.11453
300.0824
300.05507
300.0342
300.01979
300.01069
300.00542
300.00259
300.00117
300.0005
300.0002
300.00008
300.00003
300.00001
300
300
300
300
300
300
300
300
300
300
300
300
300
300
300.20933
300.19754
300.17544
300.14599
300.1133
300.08173
300.05474
300.03405
300.01972
300.01067
300.00541
300.00258
300.00116
300.0005
300.0002
300.00008
300.00003
300.00001
300
300
300
300
300
300
300
300
300
300
300
300
300
300
300.20883
300.19711
300.17511
300.14576
300.11316
300.08166
300.0547
300.03403
300.01971
300.01066
300.00541
300.00258
300.00116
300.0005
300.0002
300.00008
300.00003
300.00001
300
300
300
300
300
300
300
300
300
300
300
300
300
300
300.20879
300.19707
300.17508
300.14574
300.11315
300.08165
300.05469
300.03403
300.01971
300.01066
300.00541
300.00258
300.00116
300.0005
300.0002
300.00008
300.00003
300.00001
300
300
300
300
300
300
300.00001
300.00002
300.00003
300.00005
300.00006
300.00005
300.00003
300.00002
300.20879
300.19707
300.17508
300.14574
300.11315
300.08165
300.05469
300.03403
300.01971
300.01066
300.00541
300.00258
300.00116
300.0005
300.0002
300.00008
300.00003
300.00001
300
300
300
300
300.00001
300.00003
300.00009
300.00023
300.00049
300.00083
300.00102
300.00084
300.00052
300.00033
300.20879
300.19707
300.17508
300.14574
300.11315
300.08165
300.05469
300.03403
300.01971
300.01066
300.00541
300.00258
300.00116
300.0005
300.0002
300.00008
300.00003
300.00001
300
300
300.00001
300.00003
300.00009
300.00031
300.00094
300.00249
300.00555
300.00986
300.01258
300.00995
300.00586
300.00342
300.20879
300.19707
300.17508
300.14574
300.11315
300.08165
300.05469
300.03403
300.01971
300.01066
300.00541
300.00258
300.00116
300.0005
300.0002
300.00008
300.00003
300.00001
300.00001
300.00001
300.00003
300.00013
300.00049
300.00171
300.00547
300.01535
300.03651
300.0689
300.09168
300.06935
300.03821
300.02082
300.20879
300.19707
300.17508
300.14574
300.11315
300.08165
300.05469
300.03403
300.01971
300.01066
300.00541
300.00258
300.00116
300.0005
300.0002
300.00008
300.00003
300.00001
300.00001
300.00001
300.00004
300.00015
300.00057
300.00199
300.00631
300.01761
300.04157
300.07793
300.10323
300.07846
300.04355
300.02392
300.20879
300.19707
300.17508
300.14574
300.11315
300.08165
300.05469
300.03403
300.01971
300.01066
300.00541
300.00258
300.00116
300.0005
300.0002
300.00008
300.00003
300.00001
300.00001
300.00001
300.00004
300.00015
300.00058
300.00202
300.0064
300.01782
300.04203
300.07871
300.10419
300.07925
300.04404
300.02422
300.20879
300.19707
300.17508
300.14574
300.11315
300.08165
300.05469
300.03403
300.01971
300.01066
300.00541
300.00258
300.00116
300.0005
300.0002
300.00008
300.00003
300.00001
300.00001
300.00001
300.00004
300.00015
300.00058
300.00203
300.0064
300.01784
300.04206
300.07875
300.10425
300.0793
300.04408
300.02424
301.37925
301.16619
300.85315
300.55698
300.33419
300.18872
300.10194
300.0531
300.02674
300.01299
300.00607
300.00273
300.00117
300.00048
300.00019
300.00007
300.00003
300.00001
300
300
300
300
300
300
300
300
300
300
300
300
300
300
301.37486
301.16241
300.85034
300.55512
300.3331
300.18814
300.10165
300.05297
300.02668
300.01297
300.00606
300.00272
300.00117
300.00048
300.00019
300.00007
300.00003
300.00001
300
300
300
300
300
300
300
300
300
300
300
300
300
300
301.33929
301.13222
300.82828
300.541
300.32502
300.18395
300.09965
300.05209
300.02631
300.01282
300.00601
300.0027
300.00117
300.00048
300.00019
300.00007
300.00003
300.00001
300
300
300
300
300
300
300
300
300
300
300
300
300
300
301.1315
300.95846
300.70461
300.46433
300.28271
300.16278
300.08992
300.04793
300.02464
300.01219
300.00578
300.00263
300.00114
300.00047
300.00019
300.00007
300.00003
300.00001
300
300
300
300
300
300
300
300
300
300
300
300
300
300
300.44797
300.39661
300.31615
300.23189
300.15925
300.10338
300.06361
300.03708
300.02044
300.01065
300.00524
300.00245
300.00108
300.00046
300.00018
300.00007
300.00003
300.00001
300
300
300
300
300
300
300
300
300
300
300
300
300
300
300.24018
300.22285
300.19248
300.15522
300.11693
300.08221
300.05388
300.03292
300.01877
300.01002
300.00502
300.00237
300.00106
300.00045
300.00018
300.00007
300.00003
300.00001
300
300
300
300
300
300
300
300
300
300
300
300
300
300
300.20462
300.19266
300.17042
300.14109
300.10886
300.07802
300.05188
300.03203
300.0184
300.00987
300.00496
300.00235
300.00105
300.00045
300.00018
300.00007
300.00003
300.00001
300
300
300
300
300
300
300
300
300
300
300
300
300
300
300.20019
300.18885
300.16758
300.13922
300.10775
300.07743
300.05159
300.0319
300.01835
300.00985
300.00495
300.00235
300.00105
300.00045
300.00018
300.00007
300.00003
300.00001
300
300
300
300
300
300
300
300
300
300
300
300
300
300
300.19974
300.18846
300.16728
300.13902
300.10763
300.07736
300.05156
300.03188
300.01834
300.00985
300.00495
300.00234
300.00105
300.00044
300.00018
300.00007
300.00003
300.00001
300
300
300
300
300
300
300
300
300
300
300
300
300
300
300.1997
300.18843
300.16726
300.139
300.10762
300.07736
300.05156
300.03188
300.01834
300.00985
300.00495
300.00234
300.00105
300.00044
300.00018
300.00007
300.00003
300.00001
300
300
300
300
300
300
300.00001
300.00002
300.00004
300.00006
300.00008
300.00007
300.00004
300.00003
300.1997
300.18842
300.16726
300.139
300.10762
300.07736
300.05155
300.03188
300.01834
300.00985
300.00495
300.00234
300.00105
300.00044
300.00018
300.00007
300.00003
300.00001
300
300
300
300
300.00001
300.00004
300.00011
300.00029
300.00062
300.00108
300.00135
300.00109
300.00066
300.0004
300.1997
300.18842
300.16726
300.139
300.10762
300.07736
300.05155
300.03188
300.01834
300.00985
300.00495
300.00234
300.00105
300.00044
300.00018
300.00007
300.00003
300.00001
300
300
300.00001
300.00003
300.00011
300.00038
300.00117
300.00319
300.00733
300.01337
300.01737
300.01348
300.00771
300.00436
300.1997
300.18842
300.16726
300.139
300.10762
300.07736
300.05155
300.03188
300.01834
300.00985
300.00495
300.00234
300.00105
300.00044
300.00018
300.00007
300.00003
300.00001
300
300.00001
300.00004
300.00015
300.00059
300.00214
300.00704
300.02041
300.05019
300.09799
300.13388
300.09855
300.05232
300.02745
300.1997
300.18842
300.16726
300.139
300.10762
300.07736
300.05155
300.03188
300.01834
300.00985
300.00495
300.00234
300.00105
300.00044
300.00018
300.00007
300.00003
300.00001
300.00001
300.00001
300.00004
300.00018
300.00069
300.00248
300.0081
300.02331
300.0569
300.11029
300.1499
300.11094
300.05937
300.03141
300.1997
300.18842
300.16726
300.139
300.10762
300.07736
300.05155
300.03188
300.01834
300.00985
300.00495
300.00234
300.00105
300.00044
300.00018
300.00007
300.00003
300.00001
300.00001
300.00001
300.00004
300.00018
300.0007
300.00252
300.0082
300.02358
300.05748
300.1113
300.15117
300.11196
300.05999
300.03178
300.1997
300.18842
300.16726
300.139
300.10762
300.07736
300.05155
300.03188
300.01834
300.00985
300.00495
300.00234
300.00105
300.00044
300.00018
300.00007
300.00003
300.00001
300.00001
300.00001
300.00004
300.00018
300.0007
300.00252
300.00821
300.0236
300.05752
300.11136
300.15124
300.11202
300.06003
300.03181
301.32089
301.11424
300.8119
300.5275
300.31496
300.17707
300.09528
300.04947
300.02482
300.01202
300.0056
300.0025
300.00107
300.00044
300.00017
300.00007
300.00002
300.00001
300
300
300
300
300
300
300
300
300
300
300
300
300
300
301.3168
301.11073
300.80929
300.52579
300.31396
300.17654
300.09501
300.04935
300.02477
300.012
300.00559
300.0025
300.00107
300.00044
300.00017
300.00007
300.00002
300.00001
300
300
300
300
300
300
300
300
300
300
300
300
300
300
301.2833
301.08236
300.78863
300.51263
300.30647
300.17268
300.09319
300.04854
300.02444
300.01187
300.00555
300.00248
300.00107
300.00044
300.00017
300.00007
300.00002
300.00001
300
300
300
300
300
300
300
300
300
300
300
300
300
300
301.08518
300.91707
300.67149
300.4404
300.26686
300.153
300.0842
300.04473
300.02292
300.0113
300.00534
300.00242
300.00104
300.00043
300.00017
300.00006
300.00002
300.00001
300
300
300
300
300
300
300
300
300
300
300
300
300
300
300.42584
300.37649
300.29945
300.21911
300.15012
300.09723
300.05968
300.03469
300.01906
300.00989
300.00485
300.00225
300.00099
300.00042
300.00017
300.00006
300.00002
300.00001
300
300
300
300
300
300
300
300
300
300
300
300
300
300
300.22771
300.21121
300.18231
300.14688
300.11051
300.07755
300.05069
300.03087
300.01754
300.00932
300.00465
300.00218
300.00097
300.00041
300.00016
300.00006
300.00002
300.00001
300
300
300
300
300
300
300
300
300
300
300
300
300
300
300.19421
300.18283
300.16166
300.13372
300.10302
300.07369
300.04887
300.03007
300.01721
300.00919
300.0046
300.00217
300.00096
300.00041
300.00016
300.00006
300.00002
300.00001
300
300
300
300
300
300
300
300
300
300
300
300
300
300
300.19009
300.17929
300.15902
300.13199
300.10201
300.07315
300.0486
300.02995
300.01716
300.00917
300.00459
300.00216
300.00096
300.00041
300.00016
300.00006
300.00002
300.00001
300
300
300
300
300
300
300
300
300
300
300
300
300
300
300.18968
300.17893
300.15875
300.13181
300.1019
300.07309
300.04857
300.02993
300.01715
300.00917
300.00459
300.00216
300.00096
300.00041
300.00016
300.00006
300.00002
300.00001
300
300
300
300
300
300
300
300
300
300
300
300
300
300
300.18964
300.1789
300.15873
300.13179
300.10189
300.07308
300.04857
300.02993
300.01715
300.00917
300.00459
300.00216
300.00096
300.00041
300.00016
300.00006
300.00002
300.00001
300
300
300
300
300
300
300.00001
300.00002
300.00005
300.00008
300.0001
300.00008
300.00005
300.00003
300.18964
300.1789
300.15873
300.13179
300.10189
300.07308
300.04857
300.02993
300.01715
300.00917
300.00459
300.00216
300.00096
300.00041
300.00016
300.00006
300.00002
300.00001
300
300
300
300
300.00001
300.00005
300.00014
300.00037
300.0008
300.00139
300.00175
300.0014
300.00085
300.00051
300.18964
300.1789
300.15872
300.13179
300.10189
300.07308
300.04857
300.02993
300.01715
300.00917
300.00459
300.00216
300.00096
300.00041
300.00016
300.00006
300.00002
300.00001
300
300
300.00001
300.00004
300.00014
300.00047
300.00149
300.0041
300.00953
300.01755
300.02295
300.01768
300.01
300.00559
300.18964
300.1789
300.15872
300.13179
300.10189
300.07308
300.04857
300.02993
300.01715
300.00917
300.00459
300.00216
300.00096
300.00041
300.00016
300.00006
300.00002
300.00001
300
300.00001
300.00004
300.00019
300.00074
300.00273
300.00906
300.02658
300.06616
300.13087
300.18067
300.13157
300.06888
300.03564
300.18964
300.1789
300.15872
300.13179
300.10189
300.07308
300.04857
300.02993
300.01715
300.00917
300.00459
300.00216
300.00096
300.00041
300.00016
300.00006
300.00002
300.00001
300.00001
300.00001
300.00005
300.00022
300.00086
300.00315
300.01041
300.03031
300.07489
300.14703
300.20187
300.14784
300.07803
300.04072
300.18964
300.1789
300.15872
300.13179
300.10189
300.07308
300.04857
300.02993
300.01715
300.00917
300.00459
300.00216
300.00096
300.00041
300.00016
300.00006
300.00002
300.00001
300.00001
300.00001
300.00005
300.00022
300.00088
300.0032
300.01054
300.03066
300.07564
300.14833
300.20352
300.14916
300.07883
300.0412
300.18964
300.1789
300.15872
300.13179
300.10189
300.07308
300.04857
300.02993
300.01715
300.00917
300.00459
300.00216
300.00096
300.00041
300.00016
300.00006
300.00002
300.00001
300.00001
300.00001
300.00005
300.00022
300.00088
300.0032
300.01055
300.03068
300.07569
300.14841
300.20361
300.14924
300.07888
300.04123
301.25998
301.05852
300.76619
300.49404
300.29284
300.16359
300.08756
300.04525
300.02261
300.01089
300.00505
300.00224
300.00096
300.00039
300.00015
300.00006
300.00002
300.00001
300
300
300
300
300
300
300
300
300
300
300
300
300
300
301.25625
301.05533
300.76383
300.49251
300.29195
300.16312
300.08733
300.04514
300.02256
300.01088
300.00504
300.00224
300.00096
300.00039
300.00015
300.00006
300.00002
300.00001
300
300
300
300
300
300
300
300
300
300
300
300
300
300
301.22518
301.02909
300.74485
300.4805
300.28518
300.15967
300.0857
300.04444
300.02227
300.01077
300.005
300.00223
300.00095
300.00039
300.00015
300.00006
300.00002
300.00001
300
300
300
300
300
300
300
300
300
300
300
300
300
300
301.03778
300.8734
300.63526
300.41353
300.2488
300.14177
300.07762
300.04104
300.02093
300.01027
300.00482
300.00217
300.00093
300.00038
300.00015
300.00006
300.00002
300.00001
300
300
300
300
300
300
300
300
300
300
300
300
300
300
300.40172
300.3544
300.28095
300.20486
300.13991
300.09033
300.05526
300.03198
300.01749
300.00902
300.0044
300.00203
300.00089
300.00037
300.00015
300.00006
300.00002
300.00001
300
300
300
300
300
300
300
300
300
300
300
300
300
300
300.21433
300.1987
300.17137
300.13788
300.10353
300.07244
300.04717
300.02858
300.01615
300.00852
300.00422
300.00197
300.00087
300.00036
300.00014
300.00006
300.00002
300.00001
300
300
300
300
300
300
300
300
300
300
300
300
300
300
300.18325
300.17246
300.15239
300.12588
300.09677
300.06898
300.04555
300.02788
300.01586
300.00841
300.00418
300.00195
300.00086
300.00036
300.00014
300.00005
300.00002
300.00001
300
300
300
300
300
300
300
300
300
300
300
300
300
300
300.17949
300.16925
300.15001
300.12433
300.09586
300.06851
300.04532
300.02777
300.01581
300.00839
300.00417
300.00195
300.00086
300.00036
300.00014
300.00005
300.00002
300.00001
300
300
300
300
300
300
300
300
300
300
300
300
300
300
300.17912
300.16893
300.14976
300.12417
300.09577
300.06845
300.04529
300.02776
300.01581
300.00839
300.00417
300.00195
300.00086
300.00036
300.00014
300.00005
300.00002
300.00001
300
300
300
300
300
300
300
300
300
300
300.00001
300
300
300
300.17909
300.1689
300.14974
300.12416
300.09576
300.06845
300.04529
300.02776
300.01581
300.00839
300.00417
300.00195
300.00086
300.00036
300.00014
300.00005
300.00002
300.00001
300
300
300
300
300
300
300.00001
300.00003
300.00006
300.0001
300.00012
300.0001
300.00006
300.00004
300.17909
300.1689
300.14974
300.12416
300.09576
300.06845
300.04529
300.02776
300.01581
300.00839
300.00417
300.00195
300.00086
300.00036
300.00014
300.00005
300.00002
300.00001
300
300
300
300
300.00002
300.00005
300.00016
300.00043
300.00097
300.00171
300.00218
300.00173
300.00102
300.0006
300.17909
300.1689
300.14974
300.12416
300.09576
300.06845
300.04529
300.02776
300.01581
300.00839
300.00417
300.00195
300.00086
300.00036
300.00014
300.00005
300.00002
300.00001
300
300
300.00001
300.00004
300.00016
300.00055
300.00177
300.00499
300.01188
300.02246
300.02997
300.02261
300.01243
300.00676
300.17909
300.1689
300.14974
300.12416
300.09576
300.06845
300.04529
300.02776
300.01581
300.00839
300.00417
300.00195
300.00086
300.00036
300.00014
300.00005
300.00002
300.00001
300
300.00001
300.00005
300.00021
300.00087
300.00325
300.01105
300.03332
300.08564
300.17571
300.25083
300.17653
300.08887
300.04437
300.17909
300.1689
300.14974
300.12416
300.09576
300.06845
300.04529
300.02776
300.01581
300.00839
300.00417
300.00195
300.00086
300.00036
300.00014
300.00005
300.00002
300.00001
300
300.00001
300.00006
300.00025
300.001
300.00375
300.01266
300.03787
300.09655
300.19646
300.27863
300.19741
300.10029
300.05053
300.17909
300.1689
300.14974
300.12416
300.09576
300.06845
300.04529
300.02776
300.01581
300.00839
300.00417
300.00195
300.00086
300.00036
300.00014
300.00005
300.00002
300.00001
300.00001
300.00001
300.00006
300.00025
300.00102
300.0038
300.01282
300.03828
300.09746
300.19808
300.28069
300.19904
300.10125
300.05109
300.17909
300.1689
300.14974
300.12416
300.09576
300.06845
300.04529
300.02776
300.01581
300.00839
300.00417
300.00195
300.00086
300.00036
300.00014
300.00005
300.00002
300.00001
300.00001
300.00001
300.00006
300.00025
300.00102
300.0038
300.01283
300.03831
300.09752
300.19817
300.2808
300.19913
300.10131
300.05113
301.18758
300.99651
300.71967
300.46264
300.2733
300.15216
300.08118
300.04183
300.02084
300.01001
300.00463
300.00205
300.00087
300.00035
300.00014
300.00005
300.00002
300.00001
300
300
300
300
300
300
300
300
300
300
300
300
300
300
301.18413
300.99356
300.71749
300.46123
300.27248
300.15173
300.08097
300.04174
300.0208
300.01
300.00462
300.00205
300.00087
300.00035
300.00014
300.00005
300.00002
300.00001
300
300
300
300
300
300
300
300
300
300
300
300
300
300
301.15513
300.96911
300.69985
300.45011
300.26624
300.14856
300.07949
300.04109
300.02054
300.0099
300.00458
300.00204
300.00087
300.00035
300.00014
300.00005
300.00002
300.00001
300
300
300
300
300
300
300
300
300
300
300
300
300
300
300.97888
300.82287
300.59719
300.38759
300.23243
300.13201
300.07205
300.03799
300.01932
300.00945
300.00443
300.00198
300.00085
300.00035
300.00014
300.00005
300.00002
300.00001
300
300
300
300
300
300
300
300
300
300
300
300
300
300
300.37695
300.33227
300.26302
300.19145
300.13052
300.08411
300.05135
300.02965
300.01617
300.00832
300.00404
300.00186
300.00081
300.00033
300.00013
300.00005
300.00002
300.00001
300
300
300
300
300
300
300
300
300
300
300
300
300
300
300.20071
300.18602
300.16036
300.12893
300.09671
300.06756
300.04391
300.02654
300.01495
300.00786
300.00388
300.0018
300.00079
300.00033
300.00013
300.00005
300.00002
300.00001
300
300
300
300
300
300
300
300
300
300
300
300
300
300
300.1717
300.16157
300.14271
300.11782
300.09047
300.06439
300.04243
300.0259
300.01469
300.00776
300.00384
300.00179
300.00079
300.00033
300.00013
300.00005
300.00002
300.00001
300
300
300
300
300
300
300
300
300
300
300
300
300
300
300.16822
300.1586
300.14052
300.11639
300.08964
300.06396
300.04222
300.0258
300.01465
300.00775
300.00384
300.00179
300.00079
300.00033
300.00013
300.00005
300.00002
300.00001
300
300
300
300
300
300
300
300
300
300
300
300
300
300
300.16788
300.15831
300.1403
300.11625
300.08956
300.06391
300.04219
300.02579
300.01464
300.00775
300.00384
300.00179
300.00079
300.00033
300.00013
300.00005
300.00002
300.00001
300
300
300
300
300
300
300
300
300
300.00001
300.00001
300.00001
300
300
300.16786
300.15828
300.14028
300.11623
300.08955
300.06391
300.04219
300.02579
300.01464
300.00775
300.00384
300.00179
300.00079
300.00033
300.00013
300.00005
300.00002
300.00001
300
300
300
300
300
300
300.00001
300.00003
300.00007
300.00012
300.00015
300.00012
300.00008
300.00005
300.16785
300.15828
300.14028
300.11623
300.08955
300.06391
300.04219
300.02579
300.01464
300.00775
300.00384
300.00179
300.00079
300.00033
300.00013
300.00005
300.00002
300.00001
300
300
300
300.00001
300.00002
300.00007
300.0002
300.00053
300.00119
300.00213
300.00272
300.00215
300.00126
300.00073
300.16785
300.15828
300.14028
300.11623
300.08955
300.06391
300.04219
300.02579
300.01464
300.00775
300.00384
300.00179
300.00079
300.00033
300.00013
300.00005
300.00002
300.00001
300
300
300.00001
300.00005
300.00019
300.00067
300.00218
300.00617
300.01484
300.02835
300.03817
300.02853
300.01551
300.00835
300.16785
300.15828
300.14028
300.11623
300.08955
300.06391
300.04219
300.02579
300.01464
300.00775
300.00384
300.00179
300.00079
300.00033
300.00013
300.00005
300.00002
300.00001
300
300.00001
300.00006
300.00026
300.00106
300.00399
300.01369
300.04168
300.10853
300.22626
300.32797
300.22725
300.11251
300.05537
300.16785
300.15828
300.14028
300.11623
300.08955
300.06391
300.04219
300.02579
300.01464
300.00775
300.00384
300.00179
300.00079
300.00033
300.00013
300.00005
300.00002
300.00001
300.00001
300.00002
300.00007
300.0003
300.00122
300.0046
300.01567
300.04732
300.12218
300.25248
300.36342
300.25363
300.12676
300.06299
300.16785
300.15828
300.14028
300.11623
300.08955
300.06391
300.04219
300.02579
300.01464
300.00775
300.00384
300.00179
300.00079
300.00033
300.00013
300.00005
300.00002
300.00001
300.00001
300.00002
300.00007
300.00031
300.00124
300.00466
300.01585
300.04782
300.1233
300.25449
300.36599
300.25566
300.12795
300.06367
300.16785
300.15828
300.14028
300.11623
300.08955
300.06391
300.04219
300.02579
300.01464
300.00775
300.00384
300.00179
300.00079
300.00033
300.00013
300.00005
300.00002
300.00001
300.00001
300.00002
300.00007
300.00031
300.00124
300.00466
300.01586
300.04785
300.12337
300.2546
300.36613
300.25577
300.12802
300.06371
301.11538
300.93295
300.67027
300.42829
300.25152
300.1393
300.07398
300.03796
300.01884
300.00901
300.00414
300.00183
300.00077
300.00031
300.00012
300.00004
300.00002
300.00001
300
300
300
300
300
300
300
300
300
300
300
300
300
300
301.11226
300.93029
300.66831
300.42703
300.25079
300.13892
300.0738
300.03788
300.0188
300.009
300.00414
300.00182
300.00077
300.00031
300.00012
300.00004
300.00002
300.00001
300
300
300
300
300
300
300
300
300
300
300
300
300
300
301.08562
300.9079
300.65224
300.41697
300.24519
300.13609
300.07249
300.03732
300.01858
300.00891
300.00411
300.00181
300.00077
300.00031
300.00012
300.00004
300.00002
300.00001
300
300
300
300
300
300
300
300
300
300
300
300
300
300
300.92122
300.77193
300.55732
300.35958
300.2144
300.12116
300.06583
300.03456
300.0175
300.00852
300.00397
300.00177
300.00075
300.00031
300.00012
300.00004
300.00002
300.00001
300
300
300
300
300
300
300
300
300
300
300
300
300
300
300.35109
300.30895
300.24392
300.17707
300.12039
300.07738
300.04709
300.02709
300.0147
300.00752
300.00363
300.00166
300.00072
300.0003
300.00012
300.00004
300.00002
300.00001
300
300
300
300
300
300
300
300
300
300
300
300
300
300
300.18669
300.17297
300.149
300.11967
300.08961
300.06244
300.04043
300.02433
300.01363
300.00713
300.0035
300.00161
300.0007
300.00029
300.00011
300.00004
300.00002
300.00001
300
300
300
300
300
300
300
300
300
300
300
300
300
300
300.16005
300.15058
300.13293
300.10961
300.084
300.05961
300.03912
300.02377
300.01341
300.00704
300.00346
300.0016
300.0007
300.00029
300.00011
300.00004
300.00002
300.00001
300
300
300
300
300
300
300
300
300
300
300
300
300
300
300.1569
300.14789
300.13096
300.10834
300.08327
300.05923
300.03894
300.02369
300.01337
300.00703
300.00346
300.0016
300.0007
300.00029
300.00011
300.00004
300.00002
300.00001
300
300
300
300
300
300
300
300
300
300
300
300
300
300
300.1566
300.14764
300.13076
300.10821
300.08319
300.05919
300.03892
300.02368
300.01337
300.00703
300.00346
300.0016
300.0007
300.00029
300.00011
300.00004
300.00002
300.00001
300
300
300
300
300
300
300
300
300
300.00001
300.00001
300.00001
300
300
300.15658
300.14761
300.13075
300.1082
300.08318
300.05919
300.03892
300.02368
300.01337
300.00703
300.00346
300.0016
300.0007
300.00029
300.00011
300.00004
300.00002
300.00001
300
300
300
300
300
300
300.00001
300.00004
300.00008
300.00014
300.00017
300.00014
300.00009
300.00005
300.15658
300.14761
300.13074
300.1082
300.08318
300.05919
300.03892
300.02368
300.01337
300.00703
300.00346
300.0016
300.0007
300.00029
300.00011
300.00004
300.00002
300.00001
300
300
300
300.00001
300.00002
300.00007
300.00022
300.0006
300.00138
300.00251
300.00327
300.00253
300.00145
300.00083
300.15658
300.14761
300.13074
300.1082
300.08318
300.05919
300.03892
300.02368
300.01337
300.00703
300.00346
300.0016
300.0007
300.00029
300.00011
300.00004
300.00002
300.00001
300
300
300.00001
300.00005
300.00021
300.00076
300.00248
300.0072
300.01774
300.03487
300.04817
300.03506
300.01849
300.00968
300.15658
300.14761
300.13074
300.1082
300.08318
300.05919
300.03892
300.02368
300.01337
300.00703
300.00346
300.0016
300.0007
300.00029
300.00011
300.00004
300.00002
300.00001
300
300.00001
300.00006
300.00028
300.00118
300.00455
300.01599
300.05004
300.13492
300.29381
300.44584
300.29492
300.13946
300.06603
300.15658
300.14761
300.13074
300.1082
300.08318
300.05919
300.03892
300.02368
300.01337
300.00703
300.00346
300.0016
300.0007
300.00029
300.00011
300.00004
300.00002
300.00001
300.00001
300.00002
300.00008
300.00033
300.00137
300.00524
300.01825
300.05664
300.15128
300.32616
300.49074
300.32746
300.1565
300.07488
300.15658
300.14761
300.13074
300.1082
300.08318
300.05919
300.03892
300.02368
300.01337
300.00703
300.00346
300.0016
300.0007
300.00029
300.00011
300.00004
300.00002
300.00001
300.00001
300.00002
300.00008
300.00034
300.00139
300.00531
300.01846
300.0572
300.15258
300.32854
300.49384
300.32985
300.15787
300.07565
300.15658
300.14761
300.13074
300.1082
300.08318
300.05919
300.03892
300.02368
300.01337
300.00703
300.00346
300.0016
300.0007
300.00029
300.00011
300.00004
300.00002
300.00001
300.00001
300.00002
300.00008
300.00034
300.00139
300.00531
300.01847
300.05724
300.15266
300.32867
300.494
300.32998
300.15795
300.0757
301.03423
300.86493
300.62096
300.39625
300.23226
300.12834
300.068
300.03481
300.01723
300.00822
300.00377
300.00166
300.0007
300.00028
300.00011
300.00004
300.00001
300
300
300
300
300
300
300
300
300
300
300
300
300
300
300
301.03137
300.86249
300.61917
300.3951
300.2316
300.128
300.06783
300.03474
300.0172
300.00821
300.00377
300.00166
300.0007
300.00028
300.00011
300.00004
300.00001
300
300
300
300
300
300
300
300
300
300
300
300
300
300
300
301.00677
300.84182
300.60437
300.38586
300.22646
300.12542
300.06664
300.03423
300.017
300.00813
300.00374
300.00165
300.00069
300.00028
300.00011
300.00004
300.00001
300
300
300
300
300
300
300
300
300
300
300
300
300
300
300
300.85438
300.71583
300.51651
300.33283
300.19809
300.1117
300.06056
300.03172
300.01602
300.00778
300.00362
300.00161
300.00068
300.00028
300.00011
300.00004
300.00001
300
300
300
300
300
300
300
300
300
300
300
300
300
300
300
300.32508
300.28596
300.22561
300.16361
300.1111
300.0713
300.04332
300.02488
300.01347
300.00688
300.00331
300.00151
300.00065
300.00027
300.0001
300.00004
300.00001
300
300
300
300
300
300
300
300
300
300
300
300
300
300
300
300.17269
300.15997
300.13776
300.11058
300.08273
300.05759
300.03723
300.02236
300.0125
300.00652
300.00319
300.00147
300.00064
300.00026
300.0001
300.00004
300.00001
300
300
300
300
300
300
300
300
300
300
300
300
300
300
300
300.14809
300.13931
300.12295
300.10133
300.0776
300.055
300.03604
300.02185
300.0123
300.00644
300.00316
300.00146
300.00063
300.00026
300.0001
300.00004
300.00001
300
300
300
300
300
300
300
300
300
300
300
300
300
300
300
300.1452
300.13685
300.12114
300.10017
300.07693
300.05466
300.03588
300.02178
300.01227
300.00643
300.00316
300.00146
300.00063
300.00026
300.0001
300.00004
300.00001
300
300
300
300
300
300
300
300
300
300
300
300
300
300
300
300.14492
300.13661
300.12097
300.10005
300.07686
300.05462
300.03586
300.02177
300.01226
300.00643
300.00316
300.00146
300.00063
300.00026
300.0001
300.00004
300.00001
300
300
300
300
300
300
300
300
300
300
300.00001
300.00001
300.00001
300
300
300.1449
300.13659
300.12095
300.10004
300.07685
300.05462
300.03586
300.02177
300.01226
300.00643
300.00316
300.00146
300.00063
300.00026
300.0001
300.00004
300.00001
300
300
300
300
300
300
300.00001
300.00002
300.00004
300.0001
300.00016
300.00021
300.00017
300.0001
300.00006
300.1449
300.13659
300.12095
300.10004
300.07685
300.05462
300.03586
300.02177
300.01226
300.00643
300.00316
300.00146
300.00063
300.00026
300.0001
300.00004
300.00001
300
300
300
300
300.00001
300.00002
300.00008
300.00026
300.00072
300.00165
300.00303
300.00396
300.00305
300.00173
300.00098
300.1449
300.13659
300.12095
300.10004
300.07685
300.05462
300.03586
300.02177
300.01226
300.00643
300.00316
300.00146
300.00063
300.00026
300.0001
300.00004
300.00001
300
300
300
300.00001
300.00006
300.00024
300.00089
300.00295
300.00861
300.02144
300.0427
300.05975
300.04293
300.02233
300.01156
300.1449
300.13659
300.12095
300.10004
300.07685
300.05462
300.03586
300.02177
300.01226
300.00643
300.00316
300.00146
300.00063
300.00026
300.0001
300.00004
300.00001
300.00001
300
300.00002
300.00008
300.00033
300.0014
300.00541
300.01914
300.06058
300.16596
300.36915
300.57317
300.37048
300.17135
300.07972
300.1449
300.13659
300.12095
300.10004
300.07685
300.05462
300.03586
300.02177
300.01226
300.00643
300.00316
300.00146
300.00063
300.00026
300.0001
300.00004
300.00001
300.00001
300.00001
300.00002
300.00009
300.00039
300.00162
300.00622
300.02182
300.06848
300.18575
300.40883
300.62896
300.41036
300.19195
300.0903
300.1449
300.13659
300.12095
300.10004
300.07685
300.05462
300.03586
300.02177
300.01226
300.00643
300.00316
300.00146
300.00063
300.00026
300.0001
300.00004
300.00001
300.00001
300.00001
300.00002
300.00009
300.0004
300.00164
300.0063
300.02207
300.06915
300.1873
300.41169
300.63271
300.41324
300.19358
300.09121
300.1449
300.13659
300.12095
300.10004
300.07685
300.05462
300.03586
300.02177
300.01226
300.00643
300.00316
300.00146
300.00063
300.00026
300.0001
300.00004
300.00001
300.00001
300.00001
300.00002
300.00009
300.0004
300.00164
300.0063
300.02209
300.06919
300.18739
300.41185
300.63291
300.4134
300.19367
300.09127
300.95645
300.79797
300.57064
300.36246
300.21147
300.11636
300.06142
300.03133
300.01545
300.00734
300.00335
300.00147
300.00061
300.00025
300.00009
300.00003
300.00001
300
300
300
300
300
300
300
300
300
300
300
300
300
300
300
300.95387
300.79578
300.56904
300.36144
300.21089
300.11606
300.06128
300.03127
300.01543
300.00733
300.00335
300.00147
300.00061
300.00025
300.00009
300.00003
300.00001
300
300
300
300
300
300
300
300
300
300
300
300
300
300
300
300.93153
300.77706
300.55567
300.35314
300.2063
300.11377
300.06023
300.03082
300.01525
300.00727
300.00333
300.00146
300.00061
300.00024
300.00009
300.00003
300.00001
300
300
300
300
300
300
300
300
300
300
300
300
300
300
300
300.79139
300.66148
300.47543
300.30498
300.18071
300.10149
300.05482
300.02861
300.0144
300.00696
300.00322
300.00142
300.0006
300.00024
300.00009
300.00003
300.00001
300
300
300
300
300
300
300
300
300
300
300
300
300
300
300
300.29892
300.26262
300.2068
300.14965
300.10142
300.06494
300.03935
300.02252
300.01215
300.00617
300.00296
300.00134
300.00057
300.00023
300.00009
300.00003
300.00001
300
300
300
300
300
300
300
300
300
300
300
300
300
300
300
300.15878
300.14705
300.12656
300.1015
300.07582
300.05266
300.03394
300.0203
300.0113
300.00586
300.00285
300.0013
300.00056
300.00023
300.00009
300.00003
300.00001
300
300
300
300
300
300
300
300
300
300
300
300
300
300
300
300.13643
300.12832
300.11319
300.0932
300.07124
300.05037
300.03289
300.01986
300.01112
300.0058
300.00283
300.00129
300.00056
300.00023
300.00009
300.00003
300.00001
300
300
300
300
300
300
300
300
300
300
300
300
300
300
300
300.13384
300.12612
300.11158
300.09217
300.07065
300.05006
300.03275
300.0198
300.01109
300.00579
300.00282
300.00129
300.00056
300.00023
300.00009
300.00003
300.00001
300
300
300
300
300
300
300
300
300
300
300
300
300
300
300
300.1336
300.12591
300.11143
300.09206
300.07059
300.05003
300.03273
300.01979
300.01109
300.00578
300.00282
300.00129
300.00056
300.00023
300.00009
300.00003
300.00001
300
300
300
300
300
300
300
300
300
300
300.00001
300.00001
300.00001
300.00001
300
300.13358
300.12589
300.11142
300.09206
300.07059
300.05003
300.03273
300.01979
300.01109
300.00578
300.00282
300.00129
300.00056
300.00023
300.00009
300.00003
300.00001
300
300
300
300
300
300
300.00001
300.00002
300.00005
300.0001
300.00018
300.00023
300.00018
300.00011
300.00007
300.13357
300.12589
300.11142
300.09206
300.07059
300.05003
300.03273
300.01979
300.01109
300.00578
300.00282
300.00129
300.00056
300.00023
300.00009
300.00003
300.00001
300
300
300
300
300.00001
300.00003
300.00009
300.00028
300.00078
300.00183
300.00343
300.00457
300.00346
300.00192
300.00106
300.13357
300.12589
300.11141
300.09206
300.07059
300.05003
300.03273
300.01979
300.01109
300.00578
300.00282
300.00129
300.00056
300.00023
300.00009
300.00003
300.00001
300
300
300
300.00002
300.00006
300.00026
300.00096
300.00323
300.00962
300.02457
300.05053
300.07306
300.05078
300.02553
300.01284
300.13357
300.12589
300.11141
300.09206
300.07059
300.05003
300.03273
300.01979
300.01109
300.00578
300.00282
300.00129
300.00056
300.00023
300.00009
300.00003
300.00001
300
300
300.00002
300.00008
300.00035
300.0015
300.00592
300.02141
300.06973
300.19845
300.46515
300.76985
300.46657
300.20436
300.09113
300.13357
300.12589
300.11141
300.09206
300.07059
300.05003
300.03273
300.01979
300.01109
300.00578
300.00282
300.00129
300.00056
300.00023
300.00009
300.00003
300.00001
300
300.00001
300.00002
300.00009
300.00041
300.00174
300.00679
300.02436
300.07856
300.22119
300.51225
300.83835
300.5139
300.22796
300.10291
300.13357
300.12589
300.11141
300.09206
300.07059
300.05003
300.03273
300.01979
300.01109
300.00578
300.00282
300.00129
300.00056
300.00023
300.00009
300.00003
300.00001
300
300.00001
300.00002
300.00009
300.00042
300.00176
300.00688
300.02462
300.0793
300.22292
300.5155
300.84269
300.51717
300.22977
300.10391
300.13357
300.12589
300.11141
300.09206
300.07059
300.05003
300.03273
300.01979
300.01109
300.00578
300.00282
300.00129
300.00056
300.00023
300.00009
300.00003
300.00001
300
300.00001
300.00002
300.00009
300.00042
300.00176
300.00688
300.02464
300.07934
300.22302
300.51567
300.84291
300.51734
300.22988
300.10397
300.8726
300.72848
300.52127
300.33114
300.19309
300.10613
300.05593
300.02848
300.01402
300.00665
300.00303
300.00132
300.00055
300.00022
300.00008
300.00003
300.00001
300
300
300
300
300
300
300
300
300
300
300
300
300
300
300
300.87026
300.72649
300.51982
300.33022
300.19256
300.10586
300.0558
300.02842
300.014
300.00664
300.00303
300.00132
300.00055
300.00022
300.00008
300.00003
300.00001
300
300
300
300
300
300
300
300
300
300
300
300
300
300
300
300.84986
300.7094
300.50763
300.32265
300.1884
300.10378
300.05485
300.02802
300.01384
300.00658
300.003
300.00131
300.00055
300.00022
300.00008
300.00003
300.00001
300
300
300
300
300
300
300
300
300
300
300
300
300
300
300
300.72188
300.60382
300.43431
300.27867
300.16504
300.09259
300.04994
300.02602
300.01307
300.0063
300.00291
300.00128
300.00054
300.00022
300.00008
300.00003
300.00001
300
300
300
300
300
300
300
300
300
300
300
300
300
300
300
300.27307
300.23994
300.18894
300.13668
300.09256
300.05921
300.03584
300.02048
300.01103
300.00559
300.00267
300.00121
300.00052
300.00021
300.00008
300.00003
300.00001
300
300
300
300
300
300
300
300
300
300
300
300
300
300
300
300.14509
300.13437
300.11563
300.0927
300.06921
300.04802
300.03092
300.01847
300.01026
300.00531
300.00258
300.00118
300.00051
300.00021
300.00008
300.00003
300.00001
300
300
300
300
300
300
300
300
300
300
300
300
300
300
300
300.1247
300.11727
300.10343
300.08513
300.06504
300.04595
300.02997
300.01807
300.0101
300.00525
300.00256
300.00117
300.0005
300.00021
300.00008
300.00003
300.00001
300
300
300
300
300
300
300
300
300
300
300
300
300
300
300
300.12234
300.11527
300.10197
300.0842
300.06451
300.04567
300.02984
300.01801
300.01008
300.00525
300.00255
300.00117
300.0005
300.00021
300.00008
300.00003
300.00001
300
300
300
300
300
300
300
300
300
300
300
300
300
300
300
300.12212
300.11508
300.10183
300.08411
300.06445
300.04564
300.02983
300.01801
300.01007
300.00524
300.00255
300.00117
300.0005
300.00021
300.00008
300.00003
300.00001
300
300
300
300
300
300
300
300
300
300.00001
300.00001
300.00001
300.00001
300.00001
300
300.1221
300.11507
300.10182
300.0841
300.06445
300.04564
300.02983
300.01801
300.01007
300.00524
300.00255
300.00117
300.0005
300.00021
300.00008
300.00003
300.00001
300
300
300
300
300
300
300.00001
300.00002
300.00005
300.00012
300.00021
300.00026
300.00021
300.00013
300.00007
300.1221
300.11506
300.10182
300.0841
300.06445
300.04564
300.02983
300.01801
300.01007
300.00524
300.00255
300.00117
300.0005
300.00021
300.00008
300.00003
300.00001
300
300
300
300
300.00001
300.00003
300.0001
300.00032
300.00089
300.00211
300.00399
300.00537
300.00402
300.00221
300.00122
300.1221
300.11506
300.10182
300.0841
300.06445
300.04564
300.02983
300.01801
300.01007
300.00524
300.00255
300.00117
300.0005
300.00021
300.00008
300.00003
300.00001
300
300
300
300.00002
300.00007
300.0003
300.0011
300.0037
300.0111
300.0287
300.06
300.08834
300.06028
300.02979
300.0148
300.1221
300.11506
300.10182
300.0841
300.06445
300.04564
300.02983
300.01801
300.01007
300.00524
300.00255
300.00117
300.0005
300.00021
300.00008
300.00003
300.00001
300
300
300.00002
300.00009
300.0004
300.00171
300.00679
300.02473
300.08158
300.23674
300.57077
300.97726
300.5724
300.24351
300.1063
300.1221
300.11506
300.10182
300.0841
300.06445
300.04564
300.02983
300.01801
300.01007
300.00524
300.00255
300.00117
300.0005
300.00021
300.00008
300.00003
300.00001
300
300.00001
300.00002
300.0001
300.00047
300.00198
300.00778
300.02811
300.09178
300.26333
300.62678
301.06023
300.62866
300.27109
300.11989
300.1221
300.11506
300.10182
300.0841
300.06445
300.04564
300.02983
300.01801
300.01007
300.00524
300.00255
300.00117
300.0005
300.00021
300.00008
300.00003
300.00001
300
300.00001
300.00002
300.00011
300.00048
300.00201
300.00787
300.02841
300.09263
300.26532
300.63056
301.06534
300.63246
300.27317
300.12103
300.1221
300.11506
300.10182
300.0841
300.06445
300.04564
300.02983
300.01801
300.01007
300.00524
300.00255
300.00117
300.0005
300.00021
300.00008
300.00003
300.00001
300
300.00001
300.00002
300.00011
300.00048
300.00201
300.00788
300.02843
300.09268
300.26544
300.63076
301.06559
300.63266
300.27329
300.1211
300.79509
300.66258
300.47271
300.29925
300.17388
300.09526
300.05005
300.02541
300.01247
300.00589
300.00267
300.00116
300.00048
300.00019
300.00007
300.00003
300.00001
300
300
300
300
300
300
300
300
300
300
300
300
300
300
300
300.79301
300.66082
300.47143
300.29843
300.17342
300.09502
300.04994
300.02536
300.01245
300.00589
300.00267
300.00116
300.00048
300.00019
300.00007
300.00003
300.00001
300
300
300
300
300
300
300
300
300
300
300
300
300
300
300
300.7747
300.6455
300.46054
300.29171
300.16973
300.0932
300.04911
300.02501
300.01231
300.00583
300.00265
300.00115
300.00048
300.00019
300.00007
300.00003
300.00001
300
300
300
300
300
300
300
300
300
300
300
300
300
300
300
300.65864
300.54994
300.39441
300.25222
300.14888
300.08326
300.04477
300.02326
300.01164
300.0056
300.00257
300.00113
300.00047
300.00019
300.00007
300.00003
300.00001
300
300
300
300
300
300
300
300
300
300
300
300
300
300
300
300.24796
300.21769
300.17118
300.12365
300.08361
300.05339
300.03223
300.01836
300.00985
300.00497
300.00237
300.00106
300.00045
300.00018
300.00007
300.00003
300.00001
300
300
300
300
300
300
300
300
300
300
300
300
300
300
300
300.13191
300.12213
300.10506
300.08416
300.06275
300.04345
300.0279
300.01661
300.00918
300.00473
300.00228
300.00104
300.00044
300.00018
300.00007
300.00003
300.00001
300
300
300
300
300
300
300
300
300
300
300
300
300
300
300
300.11359
300.10681
300.09417
300.07744
300.05907
300.04163
300.02707
300.01626
300.00905
300.00468
300.00227
300.00103
300.00044
300.00018
300.00007
300.00003
300.00001
300
300
300
300
300
300
300
300
300
300
300
300
300
300
300
300.11149
300.10503
300.09287
300.07661
300.0586
300.04139
300.02695
300.01621
300.00903
300.00468
300.00226
300.00103
300.00044
300.00018
300.00007
300.00003
300.00001
300
300
300
300
300
300
300
300
300
300
300
300
300
300
300
300.1113
300.10487
300.09275
300.07653
300.05855
300.04136
300.02694
300.0162
300.00902
300.00468
300.00226
300.00103
300.00044
300.00018
300.00007
300.00003
300.00001
300
300
300
300
300
300
300
300
300
300.00001
300.00001
300.00001
300.00001
300.00001
300
300.11128
300.10485
300.09274
300.07652
300.05855
300.04136
300.02694
300.0162
300.00902
300.00468
300.00226
300.00103
300.00044
300.00018
300.00007
300.00003
300.00001
300
300
300
300
300
300
300.00001
300.00002
300.00006
300.00012
300.00022
300.00028
300.00022
300.00013
300.00008
300.11128
300.10485
300.09274
300.07652
300.05855
300.04136
300.02694
300.0162
300.00902
300.00468
300.00226
300.00103
300.00044
300.00018
300.00007
300.00003
300.00001
300
300
300
300
300.00001
300.00003
300.0001
300.00033
300.00093
300.00224
300.00432
300.00593
300.00435
300.00234
300.00126
300.11128
300.10485
300.09274
300.07652
300.05855
300.04136
300.02694
300.0162
300.00902
300.00468
300.00226
300.00103
300.00044
300.00018
300.00007
300.00003
300.00001
300
300
300
300.00002
300.00007
300.0003
300.00113
300.00386
300.01183
300.03137
300.06791
300.10423
300.0682
300.0325
300.01569
300.11128
300.10485
300.09274
300.07652
300.05855
300.04136
300.02694
300.0162
300.00902
300.00468
300.00226
300.00103
300.00044
300.00018
300.00007
300.00003
300.00001
300
300
300.00002
300.00009
300.00041
300.00177
300.0071
300.02639
300.0895
300.27056
300.69408
301.30012
300.69576
300.27764
300.11589
300.11128
300.10485
300.09274
300.07652
300.05855
300.04136
300.02694
300.0162
300.00902
300.00468
300.00226
300.00103
300.00044
300.00018
300.00007
300.00003
300.00001
300
300.00001
300.00002
300.00011
300.00048
300.00204
300.00812
300.02992
300.1004
300.2997
300.75768
301.39842
300.75961
300.30779
300.13032
300.11128
300.10485
300.09274
300.07652
300.05855
300.04136
300.02694
300.0162
300.00902
300.00468
300.00226
300.00103
300.00044
300.00018
300.00007
300.00003
300.00001
300
300.00001
300.00002
300.00011
300.00048
300.00206
300.00822
300.03023
300.10128
300.30181
300.76178
301.40407
300.76374
300.31001
300.13151
300.11128
300.10485
300.09274
300.07652
300.05855
300.04136
300.02694
300.0162
300.00902
300.00468
300.00226
300.00103
300.00044
300.00018
300.00007
300.00003
300.00001
300
300.00001
300.00002
300.00011
300.00049
300.00207
300.00822
300.03025
300.10133
300.30193
300.76199
301.40434
300.76395
300.31013
300.13158
300.71427
300.59593
300.42582
300.2699
300.15692
300.08595
300.04513
300.02288
300.01121
300.00529
300.0024
300.00104
300.00043
300.00017
300.00007
300.00002
300.00001
300
300
300
300
300
300
300
300
300
300
300
300
300
300
300
300.7124
300.59434
300.42466
300.26917
300.1565
300.08574
300.04503
300.02284
300.01119
300.00528
300.00239
300.00104
300.00043
300.00017
300.00007
300.00002
300.00001
300
300
300
300
300
300
300
300
300
300
300
300
300
300
300
300.69588
300.58052
300.41484
300.2631
300.15318
300.08409
300.04428
300.02253
300.01107
300.00524
300.00238
300.00103
300.00043
300.00017
300.00006
300.00002
300.00001
300
300
300
300
300
300
300
300
300
300
300
300
300
300
300
300.59146
300.49447
300.35522
300.22746
300.13435
300.07513
300.04037
300.02094
300.01047
300.00503
300.00231
300.00101
300.00042
300.00017
300.00006
300.00002
300.00001
300
300
300
300
300
300
300
300
300
300
300
300
300
300
300
300.22353
300.19634
300.15448
300.11162
300.07546
300.04816
300.02905
300.01653
300.00886
300.00447
300.00212
300.00095
300.0004
300.00016
300.00006
300.00002
300.00001
300
300
300
300
300
300
300
300
300
300
300
300
300
300
300
300.1191
300.11028
300.09486
300.07598
300.05663
300.03919
300.02514
300.01495
300.00826
300.00425
300.00205
300.00093
300.0004
300.00016
300.00006
300.00002
300.00001
300
300
300
300
300
300
300
300
300
300
300
300
300
300
300
300.10259
300.09646
300.08503
300.06991
300.05331
300.03755
300.0244
300.01464
300.00814
300.00421
300.00203
300.00092
300.0004
300.00016
300.00006
300.00002
300.00001
300
300
300
300
300
300
300
300
300
300
300
300
300
300
300
300.1007
300.09486
300.08387
300.06917
300.05289
300.03733
300.02429
300.01459
300.00812
300.0042
300.00203
300.00092
300.00039
300.00016
300.00006
300.00002
300.00001
300
300
300
300
300
300
300
300
300
300
300
300
300
300
300
300.10052
300.09471
300.08376
300.06909
300.05284
300.03731
300.02428
300.01459
300.00812
300.0042
300.00203
300.00092
300.00039
300.00016
300.00006
300.00002
300.00001
300
300
300
300
300
300
300
300
300
300.00001
300.00001
300.00001
300.00001
300.00001
300
300.10051
300.0947
300.08375
300.06909
300.05284
300.03731
300.02428
300.01459
300.00812
300.0042
300.00203
300.00092
300.00039
300.00016
300.00006
300.00002
300.00001
300
300
300
300
300
300
300.00001
300.00002
300.00006
300.00013
300.00024
300.00031
300.00024
300.00014
300.00008
300.10051
300.0947
300.08375
300.06909
300.05284
300.03731
300.02428
300.01459
300.00812
300.0042
300.00203
300.00092
300.00039
300.00016
300.00006
300.00002
300.00001
300
300
300
300
300.00001
300.00003
300.00011
300.00036
300.00103
300.00248
300.00483
300.0067
300.00486
300.00259
300.00139
300.10051
300.0947
300.08375
300.06909
300.05284
300.03731
300.02428
300.01459
300.00812
300.0042
300.00203
300.00092
300.00039
300.00016
300.00006
300.00002
300.00001
300
300
300
300.00002
300.00008
300.00033
300.00124
300.00425
300.0131
300.03519
300.07768
300.12226
300.07799
300.03642
300.01735
300.10051
300.0947
300.08375
300.06909
300.05284
300.03731
300.02428
300.01459
300.00812
300.0042
300.00203
300.00092
300.00039
300.00016
300.00006
300.00002
300.00001
300
300.00001
300.00002
300.0001
300.00045
300.00193
300.0078
300.02924
300.10053
300.31098
300.82739
301.62755
300.82922
300.31876
300.12976
300.10051
300.0947
300.08375
300.06909
300.05284
300.03731
300.02428
300.01459
300.00812
300.0042
300.00203
300.00092
300.00039
300.00016
300.00006
300.00002
300.00001
300
300.00001
300.00002
300.00012
300.00052
300.00223
300.00892
300.03312
300.11261
300.34369
300.90024
301.74311
300.90236
300.35258
300.14572
300.10051
300.0947
300.08375
300.06909
300.05284
300.03731
300.02428
300.01459
300.00812
300.0042
300.00203
300.00092
300.00039
300.00016
300.00006
300.00002
300.00001
300
300.00001
300.00003
300.00012
300.00053
300.00226
300.00903
300.03346
300.11357
300.34603
300.90483
301.74949
300.90697
300.35503
300.14703
300.10051
300.0947
300.08375
300.06909
300.05284
300.03731
300.02428
300.01459
300.00812
300.0042
300.00203
300.00092
300.00039
300.00016
300.00006
300.00002
300.00001
300
300.00001
300.00003
300.00012
300.00053
300.00226
300.00904
300.03348
300.11363
300.34616
300.90506
301.74979
300.90721
300.35517
300.1471
300.64202
300.53483
300.38123
300.24096
300.13971
300.07633
300.03998
300.02023
300.00988
300.00465
300.0021
300.00091
300.00037
300.00015
300.00006
300.00002
300.00001
300
300
300
300
300
300
300
300
300
300
300
300
300
300
300
300.64037
300.53343
300.38021
300.24032
300.13935
300.07615
300.0399
300.02019
300.00987
300.00464
300.0021
300.00091
300.00037
300.00015
300.00006
300.00002
300.00001
300
300
300
300
300
300
300
300
300
300
300
300
300
300
300
300.62572
300.52119
300.37153
300.23497
300.13643
300.07471
300.03925
300.01992
300.00976
300.00461
300.00208
300.0009
300.00037
300.00015
300.00006
300.00002
300.00001
300
300
300
300
300
300
300
300
300
300
300
300
300
300
300
300.53228
300.44433
300.31844
300.20336
300.11981
300.06684
300.03583
300.01854
300.00924
300.00442
300.00202
300.00088
300.00037
300.00015
300.00006
300.00002
300.00001
300
300
300
300
300
300
300
300
300
300
300
300
300
300
300
300.20051
300.176
300.13834
300.09985
300.06743
300.04297
300.02587
300.01468
300.00784
300.00394
300.00186
300.00083
300.00035
300.00014
300.00005
300.00002
300.00001
300
300
300
300
300
300
300
300
300
300
300
300
300
300
300
300.10707
300.09913
300.08525
300.06824
300.0508
300.03509
300.02245
300.01331
300.00732
300.00375
300.0018
300.00081
300.00035
300.00014
300.00005
300.00002
300.00001
300
300
300
300
300
300
300
300
300
300
300
300
300
300
300
300.09242
300.08689
300.07657
300.06289
300.04789
300.03365
300.0218
300.01304
300.00722
300.00372
300.00179
300.00081
300.00034
300.00014
300.00005
300.00002
300.00001
300
300
300
300
300
300
300
300
300
300
300
300
300
300
300
300.09075
300.08548
300.07554
300.06225
300.04752
300.03347
300.02172
300.013
300.0072
300.00371
300.00179
300.00081
300.00034
300.00014
300.00005
300.00002
300.00001
300
300
300
300
300
300
300
300
300
300
300
300
300
300
300
300.0906
300.08535
300.07545
300.06218
300.04748
300.03345
300.02171
300.01299
300.0072
300.00371
300.00179
300.00081
300.00034
300.00014
300.00005
300.00002
300.00001
300
300
300
300
300
300
300
300
300
300.00001
300.00001
300.00001
300.00001
300.00001
300
300.09059
300.08534
300.07544
300.06218
300.04748
300.03345
300.02171
300.01299
300.0072
300.00371
300.00179
300.00081
300.00034
300.00014
300.00005
300.00002
300.00001
300
300
300
300
300
300
300.00001
300.00002
300.00006
300.00013
300.00024
300.00031
300.00024
300.00014
300.00008
300.09059
300.08534
300.07544
300.06218
300.04748
300.03345
300.02171
300.01299
300.0072
300.00371
300.00179
300.00081
300.00034
300.00014
300.00005
300.00002
300.00001
300
300
300
300
300.00001
300.00003
300.00011
300.00036
300.00102
300.00249
300.00494
300.007
300.00497
300.0026
300.00137
300.09059
300.08534
300.07544
300.06218
300.04748
300.03345
300.02171
300.01299
300.0072
300.00371
300.00179
300.00081
300.00034
300.00014
300.00005
300.00002
300.00001
300
300
300
300.00002
300.00008
300.00032
300.00121
300.00422
300.01321
300.0363
300.083
300.13734
300.0833
300.03751
300.01742
300.09059
300.08534
300.07544
300.06218
300.04748
300.03345
300.02171
300.01299
300.0072
300.00371
300.00179
300.00081
300.00034
300.00014
300.00005
300.00002
300.00001
300
300
300.00002
300.0001
300.00044
300.0019
300.00774
300.0295
300.10402
300.335
300.95587
302.13012
300.95768
300.34272
300.13352
300.09059
300.08534
300.07544
300.06218
300.04748
300.03345
300.02171
300.01299
300.0072
300.00371
300.00179
300.00081
300.00034
300.00014
300.00005
300.00002
300.00001
300
300.00001
300.00002
300.00011
300.00051
300.00219
300.00885
300.03336
300.11621
300.36882
301.03393
302.26046
301.03601
300.37764
300.14957
300.09059
300.08534
300.07544
300.06218
300.04748
300.03345
300.02171
300.01299
300.0072
300.00371
300.00179
300.00081
300.00034
300.00014
300.00005
300.00002
300.00001
300
300.00001
300.00002
300.00012
300.00052
300.00222
300.00895
300.0337
300.11717
300.37117
301.03864
302.26715
301.04074
300.3801
300.15086
300.09059
300.08534
300.07544
300.06218
300.04748
300.03345
300.02171
300.01299
300.0072
300.00371
300.00179
300.00081
300.00034
300.00014
300.00005
300.00002
300.00001
300
300.00001
300.00002
300.00012
300.00052
300.00222
300.00896
300.03372
300.11723
300.3713
301.03887
302.26745
301.04097
300.38023
300.15094
300.56866
300.47434
300.33874
300.21449
300.12452
300.06808
300.03566
300.01803
300.0088
300.00414
300.00187
300.00081
300.00033
300.00013
300.00005
300.00002
300.00001
300
300
300
300
300
300
300
300
300
300
300
300
300
300
300
300.56719
300.47309
300.33784
300.21392
300.1242
300.06791
300.03558
300.01799
300.00879
300.00413
300.00186
300.0008
300.00033
300.00013
300.00005
300.00002
300.00001
300
300
300
300
300
300
300
300
300
300
300
300
300
300
300
300.55415
300.46219
300.3301
300.20915
300.1216
300.06663
300.035
300.01775
300.0087
300.0041
300.00185
300.0008
300.00033
300.00013
300.00005
300.00002
300.00001
300
300
300
300
300
300
300
300
300
300
300
300
300
300
300
300.47126
300.39393
300.28288
300.18099
300.10677
300.0596
300.03195
300.01653
300.00823
300.00393
300.0018
300.00078
300.00033
300.00013
300.00005
300.00002
300.00001
300
300
300
300
300
300
300
300
300
300
300
300
300
300
300
300.17841
300.1567
300.12328
300.08904
300.06014
300.03832
300.02306
300.01308
300.00698
300.0035
300.00166
300.00074
300.00031
300.00013
300.00005
300.00002
300.00001
300
300
300
300
300
300
300
300
300
300
300
300
300
300
300
300.09552
300.08844
300.07606
300.06088
300.04531
300.03129
300.02001
300.01185
300.00652
300.00334
300.0016
300.00072
300.00031
300.00012
300.00005
300.00002
300.00001
300
300
300
300
300
300
300
300
300
300
300
300
300
300
300
300.08247
300.07754
300.06832
300.05611
300.04271
300.03001
300.01943
300.01161
300.00642
300.0033
300.00159
300.00072
300.00031
300.00012
300.00005
300.00002
300.00001
300
300
300
300
300
300
300
300
300
300
300
300
300
300
300
300.08099
300.07628
300.06741
300.05554
300.04239
300.02984
300.01935
300.01158
300.00641
300.0033
300.00159
300.00072
300.00031
300.00012
300.00005
300.00002
300.00001
300
300
300
300
300
300
300
300
300
300
300
300
300
300
300
300.08085
300.07617
300.06732
300.05548
300.04235
300.02982
300.01934
300.01157
300.00641
300.0033
300.00159
300.00072
300.00031
300.00012
300.00005
300.00002
300.00001
300
300
300
300
300
300
300
300
300
300.00001
300.00001
300.00001
300.00001
300.00001
300
300.08084
300.07616
300.06732
300.05548
300.04235
300.02982
300.01934
300.01157
300.00641
300.0033
300.00159
300.00072
300.00031
300.00012
300.00005
300.00002
300.00001
300
300
300
300
300
300
300.00001
300.00002
300.00006
300.00014
300.00025
300.00033
300.00026
300.00015
300.00009
300.08084
300.07616
300.06732
300.05548
300.04235
300.02982
300.01934
300.01157
300.00641
300.0033
300.00159
300.00072
300.00031
300.00012
300.00005
300.00002
300.00001
300
300
300
300
300.00001
300.00003
300.00012
300.00037
300.00106
300.00262
300.00524
300.00752
300.00527
300.00273
300.00144
300.08084
300.07616
300.06732
300.05548
300.04235
300.02982
300.01934
300.01157
300.00641
300.0033
300.00159
300.00072
300.00031
300.00012
300.00005
300.00002
300.00001
300
300
300
300.00002
300.00008
300.00034
300.00127
300.00441
300.01389
300.03861
300.0902
300.15413
300.09052
300.03987
300.01829
300.08084
300.07616
300.06732
300.05548
300.04235
300.02982
300.01934
300.01157
300.00641
300.0033
300.00159
300.00072
300.00031
300.00012
300.00005
300.00002
300.00001
300
300.00001
300.00002
300.0001
300.00046
300.00199
300.0081
300.03101
300.11075
300.36564
301.09014
302.59281
301.09203
300.37371
300.14176
300.08084
300.07616
300.06732
300.05548
300.04235
300.02982
300.01934
300.01157
300.00641
300.0033
300.00159
300.00072
300.00031
300.00012
300.00005
300.00002
300.00001
300
300.00001
300.00003
300.00012
300.00054
300.00229
300.00925
300.03505
300.12357
300.40163
301.1751
302.73942
301.17727
300.41085
300.15861
300.08084
300.07616
300.06732
300.05548
300.04235
300.02982
300.01934
300.01157
300.00641
300.0033
300.00159
300.00072
300.00031
300.00012
300.00005
300.00002
300.00001
300
300.00001
300.00003
300.00012
300.00054
300.00232
300.00936
300.0354
300.12457
300.40411
301.18009
302.74661
301.18229
300.41344
300.15996
300.08084
300.07616
300.06732
300.05548
300.04235
300.02982
300.01934
300.01157
300.00641
300.0033
300.00159
300.00072
300.00031
300.00012
300.00005
300.00002
300.00001
300
300.00001
300.00003
300.00012
300.00054
300.00232
300.00937
300.03542
300.12463
300.40424
301.18033
302.74692
301.18253
300.41358
300.16005
300.50492
300.42041
300.29943
300.18908
300.1095
300.05974
300.03124
300.01576
300.00768
300.0036
300.00162
300.0007
300.00029
300.00011
300.00004
300.00002
300.00001
300
300
300
300
300
300
300
300
300
300
300
300
300
300
300
300.50364
300.41933
300.29865
300.18858
300.10922
300.0596
300.03117
300.01574
300.00767
300.0036
300.00162
300.0007
300.00029
300.00011
300.00004
300.00002
300.00001
300
300
300
300
300
300
300
300
300
300
300
300
300
300
300
300.49221
300.40979
300.29189
300.18443
300.10697
300.0585
300.03067
300.01553
300.00759
300.00357
300.00161
300.00069
300.00029
300.00011
300.00004
300.00002
300.00001
300
300
300
300
300
300
300
300
300
300
300
300
300
300
300
300.419
300.34961
300.25039
300.15978
300.09404
300.05239
300.02803
300.01447
300.00719
300.00343
300.00156
300.00068
300.00028
300.00011
300.00004
300.00002
300.00001
300
300
300
300
300
300
300
300
300
300
300
300
300
300
300
300.15808
300.13876
300.10907
300.07871
300.05312
300.0338
300.0203
300.01149
300.00611
300.00306
300.00144
300.00064
300.00027
300.00011
300.00004
300.00002
300.00001
300
300
300
300
300
300
300
300
300
300
300
300
300
300
300
300.08487
300.07858
300.06757
300.05405
300.04019
300.0277
300.01766
300.01043
300.00572
300.00292
300.00139
300.00063
300.00026
300.00011
300.00004
300.00001
300.00001
300
300
300
300
300
300
300
300
300
300
300
300
300
300
300
300.07344
300.06904
300.06082
300.04991
300.03793
300.02659
300.01717
300.01023
300.00564
300.00289
300.00138
300.00062
300.00026
300.00011
300.00004
300.00001
300.00001
300
300
300
300
300
300
300
300
300
300
300
300
300
300
300
300.07215
300.06795
300.06002
300.04941
300.03765
300.02645
300.0171
300.0102
300.00563
300.00288
300.00138
300.00062
300.00026
300.00011
300.00004
300.00001
300.00001
300
300
300
300
300
300
300
300
300
300
300
300
300
300
300
300.07204
300.06785
300.05995
300.04936
300.03762
300.02643
300.0171
300.01019
300.00562
300.00288
300.00138
300.00062
300.00026
300.00011
300.00004
300.00001
300.00001
300
300
300
300
300
300
300
300
300
300.00001
300.00001
300.00001
300.00001
300.00001
300
300.07203
300.06784
300.05994
300.04936
300.03762
300.02643
300.01709
300.01019
300.00562
300.00288
300.00138
300.00062
300.00026
300.00011
300.00004
300.00001
300.00001
300
300
300
300
300
300
300.00001
300.00002
300.00006
300.00013
300.00024
300.00031
300.00024
300.00014
300.00008
300.07203
300.06784
300.05994
300.04936
300.03762
300.02643
300.01709
300.01019
300.00562
300.00288
300.00138
300.00062
300.00026
300.00011
300.00004
300.00001
300.00001
300
300
300
300
300.00001
300.00003
300.00011
300.00035
300.00099
300.00246
300.00499
300.00729
300.00502
300.00257
300.00134
300.07203
300.06784
300.05994
300.04936
300.03762
300.02643
300.01709
300.01019
300.00562
300.00288
300.00138
300.00062
300.00026
300.00011
300.00004
300.00001
300.00001
300
300
300
300.00002
300.00008
300.00031
300.00118
300.00412
300.01308
300.03695
300.08875
300.15937
300.08905
300.03812
300.01719
300.07203
300.06784
300.05994
300.04936
300.03762
300.02643
300.01709
300.01019
300.00562
300.00288
300.00138
300.00062
300.00026
300.00011
300.00004
300.00001
300.00001
300
300.00001
300.00002
300.0001
300.00043
300.00185
300.00756
300.02922
300.10616
300.36176
301.15129
303.20623
301.15304
300.3693
300.13537
300.07203
300.06784
300.05994
300.04936
300.03762
300.02643
300.01709
300.01019
300.00562
300.00288
300.00138
300.00062
300.00026
300.00011
300.00004
300.00001
300.00001
300
300.00001
300.00002
300.00011
300.0005
300.00213
300.00863
300.03299
300.11824
300.39625
301.23505
303.35831
301.23707
300.40485
300.15123
300.07203
300.06784
300.05994
300.04936
300.03762
300.02643
300.01709
300.01019
300.00562
300.00288
300.00138
300.00062
300.00026
300.00011
300.00004
300.00001
300.00001
300
300.00001
300.00003
300.00011
300.00051
300.00216
300.00873
300.03331
300.11918
300.39858
301.23981
303.36529
301.24185
300.40728
300.15248
300.07203
300.06784
300.05994
300.04936
300.03762
300.02643
300.01709
300.01019
300.00562
300.00288
300.00138
300.00062
300.00026
300.00011
300.00004
300.00001
300.00001
300
300.00001
300.00003
300.00012
300.00051
300.00216
300.00874
300.03333
300.11923
300.3987
301.24003
303.36559
301.24208
300.40742
300.15256
300.44149
300.36787
300.26235
300.16591
300.09622
300.05255
300.02749
300.01388
300.00676
300.00317
300.00143
300.00061
300.00025
300.0001
300.00004
300.00001
300
300
300
300
300
300
300
300
300
300
300
300
300
300
300
300
300.44037
300.36692
300.26166
300.16548
300.09598
300.05243
300.02743
300.01385
300.00675
300.00317
300.00142
300.00061
300.00025
300.0001
300.00004
300.00001
300
300
300
300
300
300
300
300
300
300
300
300
300
300
300
300
300.43034
300.35855
300.25573
300.16183
300.09399
300.05145
300.027
300.01367
300.00668
300.00314
300.00142
300.00061
300.00025
300.0001
300.00004
300.00001
300
300
300
300
300
300
300
300
300
300
300
300
300
300
300
300
300.36631
300.30588
300.21936
300.14019
300.08263
300.04608
300.02467
300.01274
300.00633
300.00302
300.00137
300.0006
300.00025
300.0001
300.00004
300.00001
300
300
300
300
300
300
300
300
300
300
300
300
300
300
300
300
300.13875
300.12186
300.09587
300.06924
300.04675
300.02975
300.01787
300.01011
300.00538
300.00269
300.00127
300.00056
300.00024
300.00009
300.00004
300.00001
300
300
300
300
300
300
300
300
300
300
300
300
300
300
300
300
300.07472
300.06919
300.0595
300.0476
300.03538
300.02438
300.01554
300.00918
300.00503
300.00257
300.00123
300.00055
300.00023
300.00009
300.00004
300.00001
300
300
300
300
300
300
300
300
300
300
300
300
300
300
300
300
300.06469
300.06082
300.05357
300.04396
300.0334
300.0234
300.0151
300.00899
300.00496
300.00254
300.00122
300.00055
300.00023
300.00009
300.00004
300.00001
300
300
300
300
300
300
300
300
300
300
300
300
300
300
300
300
300.06356
300.05986
300.05287
300.04352
300.03315
300.02328
300.01505
300.00897
300.00495
300.00254
300.00121
300.00055
300.00023
300.00009
300.00004
300.00001
300
300
300
300
300
300
300
300
300
300
300
300
300
300
300
300
300.06345
300.05977
300.05281
300.04347
300.03313
300.02326
300.01504
300.00896
300.00494
300.00254
300.00121
300.00055
300.00023
300.00009
300.00004
300.00001
300
300
300
300
300
300
300
300
300
300
300.00001
300.00001
300.00001
300.00001
300.00001
300
300.06345
300.05976
300.0528
300.04347
300.03312
300.02326
300.01504
300.00896
300.00494
300.00254
300.00121
300.00055
300.00023
300.00009
300.00004
300.00001
300
300
300
300
300
300
300
300.00001
300.00002
300.00006
300.00013
300.00023
300.00031
300.00024
300.00014
300.00008
300.06345
300.05976
300.0528
300.04347
300.03312
300.02326
300.01504
300.00896
300.00494
300.00254
300.00121
300.00055
300.00023
300.00009
300.00004
300.00001
300
300
300
300
300
300.00001
300.00003
300.00011
300.00034
300.00098
300.00241
300.00492
300.00726
300.00495
300.00252
300.00132
300.06345
300.05976
300.0528
300.04347
300.03312
300.02326
300.01504
300.00896
300.00494
300.00254
300.00121
300.00055
300.00023
300.00009
300.00004
300.00001
300
300
300
300.00001
300.00002
300.00008
300.00031
300.00117
300.00404
300.01281
300.03641
300.08893
300.16464
300.08922
300.03757
300.01685
300.06345
300.05976
300.0528
300.04347
300.03312
300.02326
300.01504
300.00896
300.00494
300.00254
300.00121
300.00055
300.00023
300.00009
300.00004
300.00001
300
300
300.00001
300.00002
300.0001
300.00043
300.00182
300.00741
300.02861
300.10462
300.36341
301.20356
303.53695
301.20529
300.3708
300.13322
300.06345
300.05976
300.0528
300.04347
300.03312
300.02326
300.01504
300.00896
300.00494
300.00254
300.00121
300.00055
300.00023
300.00009
300.00004
300.00001
300
300
300.00001
300.00003
300.00012
300.0005
300.00211
300.00847
300.0323
300.11645
300.39741
301.28757
303.69433
301.28956
300.40585
300.14875
300.06345
300.05976
300.0528
300.04347
300.03312
300.02326
300.01504
300.00896
300.00494
300.00254
300.00121
300.00055
300.00023
300.00009
300.00004
300.00001
300
300
300.00001
300.00003
300.00012
300.00051
300.00214
300.00857
300.03262
300.11737
300.39969
301.29225
303.70128
301.29427
300.40823
300.14999
300.06345
300.05976
300.0528
300.04347
300.03312
300.02326
300.01504
300.00896
300.00494
300.00254
300.00121
300.00055
300.00023
300.00009
300.00004
300.00001
300
300
300.00001
300.00003
300.00012
300.00051
300.00214
300.00858
300.03265
300.11743
300.39982
301.29248
303.70158
301.2945
300.40836
300.15006
300.22869
300.18677
300.12954
300.07982
300.0454
300.02448
300.0127
300.00636
300.00307
300.00142
300.00063
300.00027
300.00011
300.00004
300.00002
300.00001
300
300
300
300
300
300
300
300
300
300
300
300
300
300
300
300
300.2282
300.18636
300.12924
300.07964
300.0453
300.02443
300.01267
300.00635
300.00307
300.00142
300.00063
300.00027
300.00011
300.00004
300.00002
300.00001
300
300
300
300
300
300
300
300
300
300
300
300
300
300
300
300
300.2236
300.18257
300.12661
300.07806
300.04446
300.02403
300.0125
300.00628
300.00304
300.00141
300.00063
300.00027
300.00011
300.00004
300.00002
300.00001
300
300
300
300
300
300
300
300
300
300
300
300
300
300
300
300
300.19209
300.15714
300.10956
300.06824
300.03947
300.02173
300.01153
300.00589
300.0029
300.00136
300.00061
300.00026
300.00011
300.00004
300.00002
300.00001
300
300
300
300
300
300
300
300
300
300
300
300
300
300
300
300
300.06982
300.06089
300.04752
300.03412
300.02292
300.01448
300.0086
300.0048
300.00251
300.00123
300.00057
300.00025
300.0001
300.00004
300.00002
300.00001
300
300
300
300
300
300
300
300
300
300
300
300
300
300
300
300
300.03831
300.03546
300.03047
300.0243
300.01792
300.01219
300.00764
300.00441
300.00236
300.00118
300.00055
300.00024
300.0001
300.00004
300.00002
300.00001
300
300
300
300
300
300
300
300
300
300
300
300
300
300
300
300
300.03371
300.03167
300.02784
300.02272
300.01709
300.01179
300.00746
300.00434
300.00234
300.00117
300.00055
300.00024
300.0001
300.00004
300.00002
300.00001
300
300
300
300
300
300
300
300
300
300
300
300
300
300
300
300
300.03321
300.03126
300.02755
300.02254
300.01698
300.01173
300.00743
300.00433
300.00233
300.00117
300.00055
300.00024
300.0001
300.00004
300.00002
300.00001
300
300
300
300
300
300
300
300
300
300
300
300
300
300
300
300
300.03317
300.03122
300.02752
300.02252
300.01697
300.01173
300.00743
300.00433
300.00233
300.00117
300.00055
300.00024
300.0001
300.00004
300.00002
300.00001
300
300
300
300
300
300
300
300
300
300
300
300.00001
300.00001
300.00001
300
300
300.03317
300.03122
300.02752
300.02252
300.01697
300.01173
300.00743
300.00433
300.00233
300.00117
300.00055
300.00024
300.0001
300.00004
300.00002
300.00001
300
300
300
300
300
300
300
300.00001
300.00001
300.00003
300.00007
300.00011
300.00015
300.00012
300.00007
300.00005
300.03317
300.03122
300.02752
300.02252
300.01697
300.01173
300.00743
300.00433
300.00233
300.00117
300.00055
300.00024
300.0001
300.00004
300.00002
300.00001
300
300
300
300
300
300.00001
300.00002
300.00006
300.00018
300.00047
300.00112
300.00227
300.00342
300.00229
300.00119
300.00065
300.03317
300.03122
300.02752
300.02252
300.01697
300.01173
300.00743
300.00433
300.00233
300.00117
300.00055
300.00024
300.0001
300.00004
300.00002
300.00001
300
300
300
300.00001
300.00002
300.00005
300.00018
300.00059
300.0019
300.00585
300.01667
300.04209
300.08361
300.04225
300.01726
300.00775
300.03317
300.03122
300.02752
300.02252
300.01697
300.01173
300.00743
300.00433
300.00233
300.00117
300.00055
300.00024
300.0001
300.00004
300.00002
300.00001
300
300
300.00001
300.00002
300.00007
300.00025
300.00092
300.00347
300.01298
300.04775
300.17263
300.6257
302.30266
300.62655
300.17609
300.06072
300.03317
300.03122
300.02752
300.02252
300.01697
300.01173
300.00743
300.00433
300.00233
300.00117
300.00055
300.00024
300.0001
300.00004
300.00002
300.00001
300
300
300.00001
300.00002
300.00008
300.00029
300.00108
300.004
300.0147
300.05312
300.18818
300.66551
302.38285
300.66651
300.19216
300.06782
300.03317
300.03122
300.02752
300.02252
300.01697
300.01173
300.00743
300.00433
300.00233
300.00117
300.00055
300.00024
300.0001
300.00004
300.00002
300.00001
300
300
300.00001
300.00002
300.00008
300.0003
300.0011
300.00406
300.01487
300.05356
300.18924
300.66767
302.38612
300.66869
300.19327
300.06843
300.03317
300.03122
300.02752
300.02252
300.01697
300.01173
300.00743
300.00433
300.00233
300.00117
300.00055
300.00024
300.0001
300.00004
300.00002
300.00001
300
300
300.00001
300.00002
300.00008
300.0003
300.0011
300.00406
300.01488
300.05359
300.1893
300.66778
302.38626
300.6688
300.19334
300.06847
300.02313
300.02016
300.01556
300.01089
300.00705
300.0043
300.00249
300.00139
300.00074
300.00038
300.00019
300.00009
300.00004
300.00002
300.00001
300
300
300
300
300
300
300
300
300
300
300
300
300
300
300
300
300
300.02303
300.02007
300.01549
300.01084
300.00702
300.00428
300.00248
300.00138
300.00074
300.00038
300.00019
300.00009
300.00004
300.00002
300.00001
300
300
300
300
300
300
300
300
300
300
300
300
300
300
300
300
300
300.02231
300.01944
300.01501
300.01051
300.00681
300.00416
300.00242
300.00135
300.00073
300.00038
300.00019
300.00009
300.00004
300.00002
300.00001
300
300
300
300
300
300
300
300
300
300
300
300
300
300
300
300
300
300.0188
300.01642
300.01275
300.009
300.00591
300.00366
300.00216
300.00123
300.00067
300.00035
300.00018
300.00009
300.00004
300.00002
300.00001
300
300
300
300
300
300
300
300
300
300
300
300
300
300
300
300
300
300.00881
300.00797
300.00659
300.00505
300.00362
300.00245
300.00156
300.00095
300.00055
300.0003
300.00016
300.00008
300.00004
300.00002
300.00001
300
300
300
300
300
300
300
300
300
300
300
300
300
300
300
300
300
300.00529
300.00495
300.00432
300.00354
300.00271
300.00195
300.00131
300.00083
300.00049
300.00027
300.00015
300.00007
300.00004
300.00002
300.00001
300
300
300
300
300
300
300
300
300
300
300
300
300
300
300
300
300
300.00458
300.00432
300.00384
300.00321
300.00251
300.00183
300.00125
300.00079
300.00047
300.00027
300.00014
300.00007
300.00004
300.00002
300.00001
300
300
300
300
300
300
300
300
300
300
300
300
300
300
300
300
300
300.00447
300.00423
300.00377
300.00316
300.00247
300.00181
300.00123
300.00079
300.00047
300.00027
300.00014
300.00007
300.00004
300.00002
300.00001
300
300
300
300
300
300
300
300
300
300
300
300
300
300
300
300
300
300.00446
300.00422
300.00376
300.00315
300.00247
300.0018
300.00123
300.00079
300.00047
300.00027
300.00014
300.00007
300.00004
300.00002
300.00001
300
300
300
300
300
300
300
300
300
300
300
300.00001
300.00001
300.00001
300.00001
300.00001
300.00001
300.00446
300.00422
300.00376
300.00315
300.00247
300.0018
300.00123
300.00079
300.00047
300.00027
300.00014
300.00007
300.00004
300.00002
300.00001
300
300
300
300
300
300
300
300.00001
300.00001
300.00003
300.00005
300.00008
300.00011
300.00012
300.00011
300.00009
300.00007
300.00446
300.00422
300.00376
300.00315
300.00247
300.0018
300.00123
300.00079
300.00047
300.00027
300.00014
300.00007
300.00004
300.00002
300.00001
300
300
300
300
300
300.00001
300.00002
300.00005
300.00012
300.00024
300.00047
300.0008
300.00118
300.00139
300.00122
300.00092
300.00071
300.00446
300.00422
300.00376
300.00315
300.00247
300.0018
300.00123
300.00079
300.00047
300.00027
300.00014
300.00007
300.00004
300.00002
300.00001
300
300
300
300.00001
300.00002
300.00004
300.00012
300.00031
300.00075
300.00171
300.00356
300.00666
300.01071
300.01358
300.01098
300.0074
300.00526
300.00446
300.00422
300.00376
300.00315
300.00247
300.0018
300.00123
300.00079
300.00047
300.00027
300.00014
300.00007
300.00004
300.00002
300.00001
300
300
300.00001
300.00002
300.00005
300.00015
300.00042
300.00116
300.00302
300.00745
300.01715
300.03627
300.06812
300.10285
300.06913
300.03925
300.02458
300.00446
300.00422
300.00376
300.00315
300.00247
300.0018
300.00123
300.00079
300.00047
300.00027
300.00014
300.00007
300.00004
300.00002
300.00001
300
300
300.00001
300.00002
300.00006
300.00018
300.00052
300.00141
300.00366
300.00891
300.02024
300.04213
300.07765
300.11505
300.07889
300.04573
300.02913
300.00446
300.00422
300.00376
300.00315
300.00247
300.0018
300.00123
300.00079
300.00047
300.00027
300.00014
300.00007
300.00004
300.00002
300.00001
300
300
300.00001
300.00002
300.00006
300.00019
300.00054
300.00146
300.00376
300.00913
300.02066
300.04286
300.07872
300.11631
300.07999
300.04655
300.02976
300.00446
300.00422
300.00376
300.00315
300.00247
300.0018
300.00123
300.00079
300.00047
300.00027
300.00014
300.00007
300.00004
300.00002
300.00001
300
300
300.00001
300.00002
300.00006
300.00019
300.00054
300.00146
300.00377
300.00915
300.02071
300.04293
300.07882
300.11642
300.0801
300.04664
300.02983
